<?xml version="1.0" encoding="utf-8"?>
<!-- Generator: Adobe Illustrator 23.0.1, SVG Export Plug-In . SVG Version: 6.00 Build 0)  -->
<svg version="1.1" id="图层_1" xmlns="http://www.w3.org/2000/svg" xmlns:xlink="http://www.w3.org/1999/xlink" x="0px" y="0px"
	 viewBox="0 0 1000 1000" style="enable-background:new 0 0 1000 1000;" xml:space="preserve">
<style type="text/css">
	.st0{fill:#FFFFFF;}
</style>
<title>Docin365</title>
<rect class="st0" width="1000" height="1000"/>
<path d="M650.5,543c-18.2,18.2-40.9,18.2-68.1,0c27.3,27.3,13.6,59-40.9,95.4c158.9,0,263.4,2.3,313.4,6.8
	c-45.5,90.9-86.3,122.7-122.6,95.4c-31.8-27.3-97.7-40.9-197.6-40.9H330.2c-50,4.6-102.2,13.7-156.7,27.3
	c-22.7,9.1-31.8,2.3-27.3-20.4c13.6-45.4,27.3-70.4,40.9-74.9c13.6-9,29.5-9,47.7,0c72.7,9.1,131.7,11.4,177.1,6.8
	c-45.5-27.3-52.3-59-20.4-95.4c-13.6,0-27.3,6.8-40.9,20.4c-22.7,9.1-36.4,4.6-40.9-13.6c-4.6-49.9-11.4-99.9-20.4-149.9
	c-9.1-31.8,2.3-47.7,34.1-47.7c59,18.2,136.3,25,231.7,20.4c22.7,0,38.6-4.5,47.7-13.6c9-13.6,24.9-15.9,47.7-6.8
	c18.2,9.1,25,25,20.4,47.7C661.8,463.5,655,511.2,650.5,543z M371.1,318.1c-59.1,0-104.5,4.5-136.3,13.6
	c-27.3,9.1-36.3-2.3-27.3-34.1c9-27.3,22.7-43.2,40.9-47.7c33.9,4.7,68,7,102.2,6.8h320.2c63.6,0,95.4,11.4,95.4,34.1
	c4.5,18.2-9.1,27.3-40.9,27.3L371.1,318.1L371.1,318.1z M568.7,420.3H405.2c-22.7,0-34.1,6.8-34.1,20.4c0,27.3,4.5,43.2,13.6,47.7
	c49.9,9.1,102.2,11.4,156.7,6.8c27.3,4.6,43.2-6.8,47.7-34.1C593.7,434,586.9,420.3,568.7,420.3z M459.7,638.4h47.7
	c27.3-40.9,31.8-72.7,13.6-95.4h-88.6C427.9,570.2,436.9,602,459.7,638.4z"/>
</svg>
