<svg id="图层_1" data-name="图层 1" xmlns="http://www.w3.org/2000/svg" viewBox="0 0 1000 1000"><title>File.io</title><rect width="1000" height="1000" style="fill:#4a98e6"/><path d="M591.3516,399.9824V277.2092a54.8763,54.8763,0,0,1,9.3639,7.2835L706.8413,390.6185a54.9971,54.9971,0,0,1,7.2836,9.3639Z" style="fill:#fff"/><path d="M558.06,408.3056a24.8629,24.8629,0,0,0,24.9684,24.9689h141.501V707.95a24.8687,24.8687,0,0,1-24.9713,24.9713H349.9713A24.8685,24.8685,0,0,1,325,707.95V291.7764a24.8687,24.8687,0,0,1,24.9713-24.9713H558.06Z" style="fill:#fff"/><path d="M558.06,408.3056" style="fill:#4a98e6"/><rect x="325.0683" y="266.5092" width="399.9317" height="466.9815" style="fill:none"/></svg>