<svg id="图层_1" data-name="图层 1" xmlns="http://www.w3.org/2000/svg" xmlns:xlink="http://www.w3.org/1999/xlink" viewBox="0 0 1000 1000"><defs><linearGradient id="未命名的渐变_51" x1="500" y1="1000" x2="500" gradientUnits="userSpaceOnUse"><stop offset="0" stop-color="#eb6352"/><stop offset="1" stop-color="#f6b645"/></linearGradient></defs><title>Foodiesfeed</title><circle cx="500" cy="500" r="500" style="fill:url(#未命名的渐变_51)"/><path d="M804.1479,577.8647c-108.0013-.1588-196.7738-.794-197.2546-1.1117-.4807-.4765,39.7393-40.6574,89.4136-89.0969,49.5139-48.5983,124.1854-121.9722,166.008-163.1061,33.2109-32.5381,61.8548-60.2489,72.5718-70.13l4.7363-4.7346a505.6447,505.6447,0,0,0-32.5915-49.9786L768.7351,335.9849c-76.4341,75.28-139.7287,137.06-140.69,137.3776-2.0831.4764-2.0831,8.2585-.16-249.0266.6409-86.8735,1.1217-170.4118,1.282-185.4995,0-19.672.5562-26.3922,1.7975-27.223A503.2853,503.2853,0,0,0,574.5692,0c2.0538,2.22,2.1736,21.5591,1.7184,154.9324-.3205,84.8088-.4807,172.794-.4807,195.1873-.16,24.7756-.8012,40.975-1.7626,40.975-.8013,0-4.006-2.7-7.2107-6.035-3.2048-3.1764-53.68-53.68-111.8471-111.9667C297.6314,115.5455,293.1448,111.0986,288.3376,105.0636c-2.5639-3.0176-13.14-13.976-23.5551-24.458C254.0592,69.8234,248.3663,65.2069,248.6713,61.66a506.1967,506.1967,0,0,0-49.9048,32.78L310.13,205.5953c62.3331,62.2567,125.1469,124.831,139.248,138.9658L475.3369,370.29l-153.0286-.7941c-83.9653-.4764-189.563-1.1117-234.27-1.1117l-75.6226-.2951A502.8018,502.8018,0,0,0,0,429.037H7.8475c9.3148-.2761,28.8262-.42,50.5467-.3024,29.3238.1589,117.135.3177,195.0112.6353l141.6516.4765-79.9594,78.4561C271.1919,551.5009,196.36,625.0337,148.7691,671.7262L64.1347,754.8319q12.18,20.7711,26.2422,40.2388L219.4347,668.0734c73.87-72.58,136.6842-134.6777,139.7287-137.8541a67.5372,67.5372,0,0,1,5.9289-5.7174c.16,0,0,59.08-.3206,131.3425-.4807,72.421-.9614,176.7644-1.1215,231.8743-.1349,57.4392-.61,89.367-1.4248,98.0664A503.0423,503.0423,0,0,0,429.6844,1000v-5.8178c-.5441-7.08-.5157-22.5811-.3362-56.9123,0-34.4636.32-122.6075.4807-195.9814l.16-133.4071,65.2173,65.433C531.1,709.2072,605.1307,783.3752,659.7723,838.1675c46.5244,46.5174,85.7231,86.2344,96.3448,97.4024a506.3912,506.3912,0,0,0,47.4576-31.5851L666.8228,767.8111C591.51,692.849,529.017,630.2747,527.8954,628.8453c-2.0831-2.3823,6.2494-2.541,109.7639-1.9058,61.5318.4765,166.8092.9529,233.9494,1.1117l117.6317.459A502.1514,502.1514,0,0,0,1000,576.5963C991.88,577.7533,937.0577,578.0109,804.1479,577.8647Z" style="fill:#fff"/></svg>