<?xml version="1.0" encoding="utf-8"?>
<!-- Generator: Adobe Illustrator 23.0.1, SVG Export Plug-In . SVG Version: 6.00 Build 0)  -->
<svg version="1.1" id="图层_1" xmlns="http://www.w3.org/2000/svg" xmlns:xlink="http://www.w3.org/1999/xlink" x="0px" y="0px"
	 viewBox="0 0 1000 1000" style="enable-background:new 0 0 1000 1000;" xml:space="preserve">
<style type="text/css">
	.st0{fill:#FFFFFF;}
	.st1{fill:#C71D23;}
</style>
<title>Gitee</title>
<circle class="st0" cx="500" cy="500" r="450"/>
<path class="st1" d="M499.4,25C237.3,25.3,25,237.9,25,500c0,262.3,212.7,475,475,475s475-212.7,475-475S762.3,25,500,25
	C499.8,25,499.6,25,499.4,25z M740.4,236.1c12.9,0,23.4,10.5,23.4,23.4v0.1v58.7c0,12.9-10.5,23.4-23.5,23.4H412
	c-38.9,0-70.4,31.5-70.4,70.4V635c0,13,10.5,23.4,23.5,23.4H588c38.9,0,70.4-31.5,70.4-70.4v-11.7c0-12.9-10.5-23.5-23.4-23.5H470.6
	c-12.9,0-23.4-10.5-23.4-23.4l0,0l0,0v-58.7c0-12.9,10.5-23.4,23.5-23.4h269.8c13,0,23.5,10.5,23.5,23.4v134.9
	c0,87.4-70.9,158.3-158.3,158.3l0,0h-346c-13,0-23.5-10.5-23.5-23.5l0,0V412c0-97.2,78.8-175.9,175.9-175.9H740.4L740.4,236.1z"/>
</svg>
