<svg id="图层_1" data-name="图层 1" xmlns="http://www.w3.org/2000/svg" viewBox="0 0 1000 1000"><title>Github</title><path d="M952,574.5c0-248.52814-201.47186-450-450-450S52,325.97186,52,574.5C52,771.62244,178.74994,939.134,355.19263,1000H648.80737C825.25006,939.134,952,771.62244,952,574.5Z" transform="translate(0 0)" style="fill:#fff"/><path d="M500,0C223.75,0,0,229.55914,0,512.69488,0,739.26331,143.25,931.3957,341.875,999.11411c25,4.82791,34.16665-11.02291,34.16665-24.65206,0-12.1765-.41668-44.4336-.625-87.15817C236.33329,918.23643,207,818.51729,207,818.51729c-22.75-59.17346-55.625-74.98151-55.625-74.98151-45.29167-31.78706,3.5-31.14622,3.5-31.14622,50.20833,3.58885,76.58335,52.80758,76.58335,52.80758,44.58334,78.39955,117.04166,55.75558,145.625,42.63909,4.5-33.15423,17.375-55.75558,31.66668-68.57292C297.70835,726.446,181,682.35414,181,485.90658c0-55.96917,19.375-101.68449,51.45834-137.57314-5.625-12.94557-22.5-65.06952,4.375-135.69325,0,0,41.875-13.75731,137.5,52.55123,40-11.40747,82.5-17.04712,125-17.30347,42.5.25635,85,5.896,125,17.30347,95-66.30854,136.875-52.55123,136.875-52.55123,26.875,70.62371,10,122.74768,5,135.69325,31.875,35.88865,51.25,81.60393,51.25,137.57314,0,196.9603-116.875,240.32572-228.125,252.92947,17.5,15.38087,33.75,46.82616,33.75,94.84852,0,68.61571-.625,123.73036-.625,140.39292,0,13.45826,8.75,29.48,34.375,24.353C856.875,931.182,1000,738.92145,1000,512.69488,1000,229.55914,776.125,0,500,0" transform="translate(0 0)"/></svg>