<svg id="图层_1" data-name="图层 1" xmlns="http://www.w3.org/2000/svg" viewBox="0 0 1000 1000"><title>InternetArchive</title><rect width="1000" height="1000" style="fill:#fff"/><path d="M831.5625,875H168.4375V840.9375h663.125Zm-25-99.375H194.6875v47.1875h611.875Zm-7.1875-536.25H190.625v65.3125h608.75ZM495,125,176.25,199.6875,194.6875,218.75H795.625L812.5,199.6875ZM240.9375,756.5625a107.4987,107.4987,0,0,0,31.25-4.0625c5-54.375,7.8125-153.125,7.8125-214.6875s-2.8125-156.25-7.5-211.25a5.6249,5.6249,0,0,0-4.0625-4.6875,111.2487,111.2487,0,0,0-26.25-3.125,115.3074,115.3074,0,0,0-25.9375,3.125,5.6249,5.6249,0,0,0-4.0625,4.6875c-5,55-7.5,150.625-7.5,211.25S207.5,698.125,212.5,752.5A104.3724,104.3724,0,0,0,240.9375,756.5625Zm165.9375,0a105.3137,105.3137,0,0,0,31.25-4.0625c5-54.375,7.8125-153.125,7.8125-214.6875s-2.8125-156.25-7.5-211.25a5.6249,5.6249,0,0,0-4.0625-4.6875,110.6267,110.6267,0,0,0-28.125-3.125A118.4327,118.4327,0,0,0,380,321.875a5.6249,5.6249,0,0,0-4.0625,4.6875c-4.6875,55-7.5,150.625-7.5,211.25S371.25,698.125,376.25,752.5a105.002,105.002,0,0,0,30,4.0625Zm192.1875,0a105.3142,105.3142,0,0,0,31.25-4.0625c5-54.375,7.8125-153.125,7.8125-214.6875s-2.5-156.25-7.5-211.25A5.3125,5.3125,0,0,0,625,321.875a110.6231,110.6231,0,0,0-25.9375-3.125,113.1286,113.1286,0,0,0-25.9375,3.125,5.6249,5.6249,0,0,0-4.375,4.6875c-4.6875,55-7.5,150.625-7.5,211.25S564.0625,698.125,569.375,752.5A102.5034,102.5034,0,0,0,599.0625,756.5625Zm161.875,0A105.3129,105.3129,0,0,0,790.625,752.5c5-54.375,7.8125-153.125,7.8125-214.6875s-2.5-156.25-7.5-211.25a5.625,5.625,0,0,0-4.0624-4.6875,110.6231,110.6231,0,0,0-25.9375-3.125,118.4327,118.4327,0,0,0-26.25,3.125,5.6249,5.6249,0,0,0-4.0625,4.6875c-4.6875,55-7.5,150.625-7.5,211.25S725.9376,698.125,730.9376,752.5A105.0013,105.0013,0,0,0,760.9375,756.5625Z"/></svg>