<svg id="图层_1" data-name="图层 1" xmlns="http://www.w3.org/2000/svg" viewBox="0 0 1000 1000"><title>PDF24</title><circle cx="500" cy="500" r="500" style="fill:#fff"/><path d="M631.2735,337.3185c1.653-5.8787,22.7788-4.7608,27.053-4.5088,27.6077,1.6273,50.2184,2.96,57.7128,17.1335,3.1418,5.9417,1.3222,9.7812,6.3124,15.33,2.2215,2.47,4.6308,3.9872,19.8388,9.9194,13.2728,5.1773,15.4159,5.5736,18.9528,8.4913,5.9805,4.9337,5.6852,8.612,9.9036,14.0528,10.372,13.3773,31.9341,16.7018,46.8917,13.5264,10.322-2.1912,8.7806-5.4471,22.5441-10.8212,16.6126-6.4865,44.223-11.6471,55.0076.9018a20.0426,20.0426,0,0,1,4.5088,12.6247c-.1358,11.05-10.7351,18.509-12.6247,19.8388-20.479,14.4123-52.052,1.7335-58.6146-.9018-7.4183-2.9789-6.75-3.8623-17.1335-8.1158-4.0215-1.6474-10.4345-4.1008-33.3653-11.723-11.89-3.9521-16.8894-6.3632-19.8388-11.7229-2.6338-4.7863-.346-6.3009-2.7053-10.8212-3.5938-6.8854-10.4231-6.51-29.7582-15.33-6.7-3.0561-10.05-4.5842-12.6247-7.2141-6.2282-6.3617-5.3029-12.359-10.8211-16.2318-4.2049-2.951-9.0908-2.5208-15.33-1.8035-30.0588,3.4555-48.4844,8.6234-52.3023,2.7053a52.068,52.068,0,0,1-1.8035-6.3124C631.683,341.0063,630.9859,338.3414,631.2735,337.3185Z" style="fill:#8b898a"/><path d="M639.2257,603.8106c-45.9547-20.0166-93.6413-17.4988-120.5534,3.42a116.4379,116.4379,0,0,0-44.7009-9.7965c-46.8419-1.1864-85.462,23.4068-86.26,54.9305s36.5271,58.04,83.369,59.2269a115.773,115.773,0,0,0,46.6652-8.1331c13.9407,17.4084,34.2474,33.0121,59.0011,43.7941,58.858,25.637,120.5583,14.3093,137.8115-25.3011S698.0837,629.4476,639.2257,603.8106Z" style="fill:#ccc"/><ellipse cx="580.1288" cy="352.4035" rx="55.5468" ry="61.3435" transform="translate(-93.8511 432.9563) rotate(-38.0925)" style="fill:#4b4c4b"/><ellipse cx="580.1288" cy="352.4035" rx="50.3271" ry="55.5792" transform="translate(-93.8511 432.9563) rotate(-38.0925)" style="fill:#fff"/><path d="M562.8769,383.1772a244.213,244.213,0,0,1,77.5517-.9017c30.6737,4.5337,122.48,21.4953,156.9068,94.6851,3.8068,8.0929,24.0519,50.705,8.1159,96.4888-20.6241,59.2525-86.4977,79.8206-105.6437,85.7987-25.3407,7.9123-47.0857,8.4807-67.6323,9.0177-41.4933,1.0845-67.2211-6.4338-73.8072-10.0506-.3871-.2126-5.0688-2.2429-14.4283-6.3124-3.1843-1.3845-4.8071-2.0713-6.3123-1.8035-5.6472,1.0046-8.0382,9.1-10.8212,13.5264-7.65,12.1667-29.3991,11.8654-39.6776,11.723-35.1256-.4867-73.8344-32.38-95.7243-68.4029-4.9378-8.1259-39.6489-65.2485-18.8-101.1287,7.878-13.5575,29.5492-34.1682,31.5617-36.0706.4857-.4591,9.0147-8.4882,18.9371-16.2317C498.7517,394.4781,562.8768,383.1772,562.8769,383.1772Z" style="fill:#4b4c4b"/><path d="M479.7772,424.79c57.5138-38.8628,205.794-59.0613,281.35,25.2494,7.9339,8.8531,46.503,51.8911,37.8741,100.9975-11.77,66.9827-104.3525,112.6633-171.3351,107.31-57.0268-4.5578-69.4357-9.0176-69.4358-9.0177-13.1-7.0978-31.2362-14.6826-41.4812-7.2141-6.9335,5.0545-4.4387,12.7655-10.8211,18.0353-13.7374,11.3427-47.9539-5.6713-67.6323-20.7406-25.5782-19.5872-36.7881-43.6954-41.4811-54.1058-9.1777-20.3585-19.4171-43.0721-12.6247-67.6323,4.9627-17.9443,22.313-32.9475,56.8111-62.2217C444.2626,452.6822,467.0865,433.3649,479.7772,424.79Z" style="fill:#e6ca98"/><path d="M519.4548,660.15c-2.7152-2.6125-6.104-5.9542-9.9194-9.9194-21.9265-22.7875-46.3043-49.3312-51.4-79.3552-.7445-4.3864-2.5081-17.3167-9.9194-19.8388-3.92-1.3339-8.1451.6362-9.0176-.9018-1.2017-2.1183,5.9411-7.9811,7.2141-9.0176,15.47-12.5971,45.3339-30.3391,51.4005-23.4459a4.8093,4.8093,0,0,1,.9018,4.5088c-1.6246,4.5949-11,2.9547-17.1335,6.3124-10.6359,5.8228-10.0735,26.0259-9.9194,31.5617.705,25.33,14.5525,56.0408,40.5793,70.3376,14.0945,7.7423,31.99,10.84,31.5618,12.6247-.2425,1.01-5.8057-.671-11.723,1.8035C525.56,647.5462,521.7689,653.9961,519.4548,660.15Z" style="fill:#4b4c4b"/><ellipse cx="475.2684" cy="367.0767" rx="94.0901" ry="89.6683" transform="translate(-107.3631 221.5917) rotate(-23.6607)" style="fill:#4b4c4b"/><ellipse cx="475.2684" cy="367.0767" rx="85.2486" ry="81.2423" transform="translate(-107.3631 221.5917) rotate(-23.6607)" style="fill:#fff"/><path d="M641.1929,312.0691a23.4084,23.4084,0,0,1-8.1158,11.7229c-.9208-2.8443-2.26-7.2112-3.6071-12.6247-2.0712-8.32-1.6961-9.2017-2.7053-12.6247-4.284-14.5311-16.4427-16.9611-15.33-25.2493.5341-3.9786,3.934-7.8744,7.2141-8.1159,5.0476-.3716,9.1065,7.9622,15.33,20.7406C640.12,298.5276,643.1509,304.9772,641.1929,312.0691Z" style="fill:#4b4c4b"/><path d="M408.5379,251.6509c-.2015,4.6155-4.2849,7.3725-8.1159,10.8212-4.8132,4.333-9.5211,12.8081-18.937,29.7582a294.1583,294.1583,0,0,0-16.2318,34.267,112.3778,112.3778,0,0,1-.9017-19.8388c1.2588-28.8138,13.2611-46.618,20.74-57.7129,4.3211-6.41,7.5636-9.88,11.723-9.9194C402.697,238.97,408.7938,245.7882,408.5379,251.6509Z" style="fill:#4b4c4b"/><path d="M401.4535,427.2957c.3833-6.1353-21.5142-13.1607-25.9535-14.5579-28.6746-9.025-52.1592-16.4166-64.7688-6.0107-5.2861,4.3623-4.7832,8.6521-11.8127,11.94-3.13,1.4639-6.115,1.9636-23.68,1.7066-15.33-.2243-17.6511-.6722-22.2767.7081-7.8215,2.3339-8.8135,5.89-15.02,9.3723-15.259,8.5611-38.376,3.4349-52.486-5.253-9.737-5.9955-7.0238-8.4547-19.1456-18.7449-14.631-12.42-40.9229-27.8014-56.3108-20.1735a18.9787,18.9787,0,0,0-9.0262,10.0967c-3.7448,10.3967,4.4232,21.43,5.8794,23.3972,15.7815,21.3179,52.3762,21.5115,59.9825,21.5518,8.5982.0455,8.2282-1.037,20.2928-1.0517,4.6726-.0058,12.0627.1477,38.0832,1.7732,13.4918.8429,19.4285.4959,24.3142-3.395,4.3631-3.4747,2.5665-5.7669,6.5565-9.0973,6.078-5.0732,12.898-2.1128,35.6791-2.982,7.894-.3012,11.841-.4517,15.3862-1.93,8.5755-3.5762,9.7412-9.5445,16.7193-11.0618,5.3173-1.1562,10.14,1.1135,16.2387,4.1689,29.3834,14.72,46.3233,26.5988,52.2894,22.5169a48.9522,48.9522,0,0,0,4.0542-5.2206C399.7408,430.5919,401.3868,428.3633,401.4535,427.2957Z" style="fill:#8b898a"/><path d="M500.5178,246.24c-27.6229-8.5213-53.5121-2.6111-65.8288.9018-46.1356,13.1588-77.5311,42.7931-95.9706,66.4281a30.9214,30.9214,0,0,0-4.1251-.5993c-20.706-1.5853-39.2007,18.22-47.7935,33.3652-7.7784,13.71-11.9107,31.4768-7.2141,43.2847a32.2062,32.2062,0,0,0,9.0176,12.6247,30.5435,30.5435,0,0,0,9.0177,4.5088c7.7763,2.2869,20.7836-2.0663,34.5725-12.09a36.0715,36.0715,0,0,0,2.4,6.6793c4.7384,10.0748,30.1018,15.6732,62.2217,9.0176l-5.4106-5.4105a63.4676,63.4676,0,0,1-28.8564,2.7053c-7.6377-1.091-20.7134-2.9588-26.1512-12.6247a22.5966,22.5966,0,0,1-1.2678-2.5781c2.52-1.9654,5.0556-4.11,7.58-6.44l-1.8035-2.7053c-1.8477,1.2186-4.193,2.6913-6.9825,4.2737a12.3468,12.3468,0,0,1,.67-5.1754,14.0833,14.0833,0,0,1,6.3123-7.2141L338.2,373.389a18.17,18.17,0,0,0-5.4106,6.3124h0a20.23,20.23,0,0,0-1.4438,9.2979c-2.0378,1.0928-4.2555,2.2143-6.672,3.3268-13.6606,6.2892-24.048,11.0715-31.5618,7.2141-10.0945-5.1824-9.9489-23.3647-9.9194-27.0529.2611-32.5871,32.8684-55.7905,44.1865-55.9094.585-.0061,6.1219-.0032,9.04-.0012-12.6262,16.8141-18.4205,29.9344-18.0573,30.6612l.0062.0123c.0258.0518.1007.2018.8956,1.7912a183.3742,183.3742,0,0,1,35.1688-49.597,179.64,179.64,0,0,1,64.0252-41.4811s39.2106-14.5134,80.257-7.2141c12.3631,2.1985,19.8022,6.2726,24.3476,12.6247a27.0994,27.0994,0,0,1,4.5088,10.8211c1.7432-1.7446,3.5944-4.2317,3.6071-7.2141C531.2258,255.7187,505.1828,247.6794,500.5178,246.24Z" style="fill:#4b4c4b"/><path d="M496.9165,385.1742c3.8922-.2355,6.8537-5.632,7.2141-9.9194.7383-8.7822-9.0265-17.7982-13.5265-16.2317-4.31,1.5-5.5577,13.3225-.9017,20.7406C490.42,380.9072,493.238,385.3968,496.9165,385.1742Z" style="fill:#4b4c4b"/><path d="M574.3839,364.4279a6.6587,6.6587,0,0,0,6.3966-4.503c1.13-3.5394-1.9186-6.9888-4.5088-9.9194-2.1344-2.4149-4.5586-5.1577-6.4692-4.5578-2.9218.9173-4.22,9.5185-.6545,15.0532C569.8381,361.5721,571.5344,364.205,574.3839,364.4279Z" style="fill:#4b4c4b"/></svg>