<svg id="图层_1" data-name="图层 1" xmlns="http://www.w3.org/2000/svg" viewBox="0 0 1000 1000"><title>V2EX</title><rect width="1000" height="1000" style="fill:#fff"/><path d="M304.2829,373.3034,229.5817,631.77H199.7012L125,373.3034h35.8566l52.2908,195.7171h2.9881l52.2908-195.7171Z"/><path d="M331.1753,621.3114q1.4708-22.41,20.9163-40.3387,19.399-17.9283,49.3028-56.0259,29.8686-38.0976,38.8446-59.0139,8.9642-20.9044,6.7232-35.8566a38.1809,38.1809,0,0,0-14.1933-24.6514,36.8069,36.8069,0,0,0-27.6394-8.2171q-15.6873,1.506-29.88,11.9522-14.2166,10.47-21.6633,31.3745l-28.3865-4.4821q11.94-34.3506,30.6275-50.05Q374.49,370.3153,399.9,368.8213a95.6437,95.6437,0,0,1,26.8924.7471q11.94,2.241,24.6514,10.4581,12.6759,8.2292,20.9164,24.6514,8.1938,16.4577,5.9761,39.5916-2.2412,23.1809-23.1574,55.2789Q434.24,531.6933,374.502,600.395h107.57v26.8925H331.1753Z"/><path d="M677.7888,628.7815h-152.39V373.3034h144.92V401.69H559.761v79.1832H661.3546V509.26H559.761V600.395H677.7888Z"/><path d="M875,628.7815H839.1434L788.3466,524.2,737.55,628.7815H701.6932l70.2192-134.4622L709.1633,373.3034H745.02l43.3267,92.63,43.3267-92.6295H867.53l-62.749,121.0159Z"/></svg>