<?xml version="1.0" encoding="utf-8"?>
<!-- Generator: Adobe Illustrator 23.0.1, SVG Export Plug-In . SVG Version: 6.00 Build 0)  -->
<svg version="1.1" id="图层_1" xmlns="http://www.w3.org/2000/svg" xmlns:xlink="http://www.w3.org/1999/xlink" x="0px" y="0px"
	 viewBox="0 0 1000 1000" style="enable-background:new 0 0 1000 1000;" xml:space="preserve">
<style type="text/css">
	.st0{fill:#FFFFFF;}
	.st1{fill:#FF9FE0;}
</style>
<title>Wormhole</title>
<rect class="st0" width="1000" height="1000"/>
<path class="st1" d="M436,103c10.2-9.5,39.4,5.7,53.5,15c13.4,8.8,46,33.7,65.3,95.2c35.5,113-12.5,226.6-20.5,225.4
	c-3.8-0.6,0.4-27.5-5.9-121.2c-2.7-40.5-4.5-51.7-10.1-65.7c-14.2-35.7-44.1-67.3-48.2-71.8c-13.9-14.5-26-23.8-33.2-43.9
	C435.1,130.7,427.9,110.5,436,103z"/>
<path class="st1" d="M564,897c-10.2,9.5-39.4-5.7-53.5-15c-13.4-8.8-46-33.7-65.3-95.2c-35.5-113,12.5-226.6,20.5-225.4
	c3.8,0.6-0.4,27.5,5.9,121.2c2.7,40.5,4.5,51.7,10.1,65.7c14.2,35.7,44.1,67.3,48.2,71.8c13.9,14.5,26,23.8,33.2,43.9
	C564.9,869.3,572.1,889.5,564,897z"/>
<path class="st1" d="M897,436c9.5,10.2-5.7,39.4-15,53.5c-8.8,13.4-33.7,46-95.2,65.3c-113,35.5-226.6-12.5-225.4-20.5
	c0.6-3.8,27.5,0.4,121.2-5.9c40.5-2.7,51.7-4.5,65.7-10.1c35.7-14.2,67.3-44.1,71.8-48.2c14.5-13.9,23.8-26,43.9-33.2
	C869.3,435.1,889.5,427.9,897,436z"/>
<path class="st1" d="M103,564c-9.5-10.2,5.7-39.4,15-53.5c8.8-13.4,33.7-46,95.2-65.3c113-35.5,226.6,12.5,225.4,20.5
	c-0.6,3.8-27.5-0.4-121.2,5.9c-40.5,2.7-51.7,4.5-65.7,10.1c-35.7,14.2-67.3,44.1-71.8,48.2c-14.5,13.9-23.8,26-43.9,33.2
	C130.7,564.9,110.5,572.1,103,564z"/>
<path class="st1" d="M124.2,356.9c-3.1-13.5,24.6-31.3,39.7-38.8c14.2-7.2,52.2-23,115.2-9c115.6,25.8,190,124.2,184.9,130.4
	c-2.4,3-23.6-14.1-107.8-55.5c-36.3-17.9-47.1-21.9-62-24.1c-38.1-5.6-80.3,4.4-86.2,5.9c-19.6,4.7-33.7,10.6-54.6,6.8
	C147.7,371.5,126.7,367.7,124.2,356.9z"/>
<path class="st1" d="M875.8,643.1c3.1,13.5-24.6,31.3-39.7,38.8c-14.2,7.2-52.2,23-115.2,9c-115.6-25.8-190-124.2-184.9-130.4
	c2.4-3,23.6,14.1,107.8,55.5c36.3,17.9,47.1,21.9,62,24.1c38.1,5.6,80.3-4.4,86.2-5.9c19.6-4.7,33.7-10.6,54.6-6.8
	C852.3,628.5,873.3,632.3,875.8,643.1z"/>
<path class="st1" d="M643.1,124.2c13.5-3.1,31.3,24.6,38.8,39.7c7.2,14.2,23,52.2,9,115.2c-25.8,115.6-124.2,190-130.4,184.9
	c-3-2.4,14.1-23.6,55.5-107.8c17.9-36.3,21.9-47.1,24.1-62c5.6-38.1-4.4-80.3-5.9-86.2c-4.7-19.6-10.6-33.7-6.8-54.6
	C628.5,147.7,632.3,126.7,643.1,124.2z"/>
<path class="st1" d="M356.9,875.8c-13.5,3.1-31.3-24.6-38.8-39.7c-7.2-14.2-23-52.2-9-115.2c25.8-115.6,124.2-190,130.4-184.9
	c3,2.4-14.1,23.6-55.5,107.8c-17.9,36.3-21.9,47.1-24.1,62c-5.6,38.1,4.4,80.3,5.9,86.2c4.7,19.6,10.6,33.7,6.8,54.6
	C371.5,852.3,367.7,873.3,356.9,875.8z"/>
<path class="st1" d="M188.2,753.9c-13.3-4-14.7-37-13.8-53.8c0.9-16,6.2-56.6,49.8-104.2c80.2-87.2,202.5-102.5,205.4-95
	c1.4,3.6-24,13.4-102,65.6C294,589,285.1,596.2,275.9,608c-23.9,30.3-36.3,71.8-38,77.6c-5.7,19.4-7.6,34.4-21.4,50.7
	C212.7,740.8,198.8,757.2,188.2,753.9z"/>
<path class="st1" d="M811.8,246.1c13.3,4,14.7,37,13.8,53.8c-0.9,16-6.2,56.6-49.8,104.2c-80.2,87.2-202.5,102.5-205.4,95
	c-1.4-3.6,24-13.4,102-65.6c33.7-22.5,42.5-29.8,51.8-41.6c23.9-30.3,36.3-71.8,38-77.6c5.7-19.4,7.6-34.4,21.4-50.7
	C787.3,259.2,801.2,242.8,811.8,246.1z"/>
<path class="st1" d="M246.1,188.2c4-13.3,37-14.7,53.8-13.8c16,0.9,56.6,6.2,104.2,49.8c87.2,80.2,102.5,202.5,95,205.4
	c-3.6,1.4-13.4-24-65.6-102C411,294,403.8,285.1,392,275.9c-30.3-23.9-71.8-36.3-77.6-38c-19.4-5.7-34.4-7.6-50.7-21.4
	C259.2,212.7,242.8,198.8,246.1,188.2z"/>
<path class="st1" d="M753.9,811.8c-4,13.3-37,14.7-53.8,13.8c-16-0.9-56.6-6.2-104.2-49.8c-87.2-80.2-102.5-202.5-95-205.4
	c3.6-1.4,13.4,24,65.6,102c22.5,33.7,29.8,42.5,41.6,51.8c30.3,23.9,71.8,36.3,77.6,38c19.4,5.7,34.4,7.6,50.7,21.4
	C740.8,787.3,757.2,801.2,753.9,811.8z"/>
</svg>
