<svg id="图层_1" data-name="图层 1" xmlns="http://www.w3.org/2000/svg" viewBox="0 0 1000 1000"><title>Hippopx</title><circle cx="500" cy="500" r="500" style="fill:#fff"/><path d="M803.0734,636.62c-95.5209-111.6932-176.4048-93.1558-211.7862-175.2714-17.49-40.5907-18.79-94.0077,7.3029-135.105,33.0366-52.0333,105.6576-77.5,153.3625-58.4238,35.3833,14.1491,40.0246,45.9915,62.0753,43.8178,30.54-3.01,67.889-68.65,43.8178-116.8476-18.0475-36.1368-63.6848-48.58-94.9387-43.8178-21.0911,3.2138-38.5293,14.7049-43.8178,18.2575-28.1225,18.8919-29.1941,37.1654-47.4693,40.1663-16.7482,2.75-19.7765-11.952-51.1208-21.9089a93.7175,93.7175,0,0,0-13.8778-3.3624c-23.1228-3.6629-36.2868-3.1878-51.849-3.9406C520.7787,178.54,523.3831,168.3966,497,169c-24.7519.5661-21.4344,9.3654-51.7723,11.184-15.9486.956-28.6148.26-51.8489,3.9406a93.7185,93.7185,0,0,0-13.8779,3.3624c-31.3443,9.9569-34.3726,24.6589-51.1208,21.9089-18.2752-3.0009-19.3468-21.2744-47.4693-40.1663-5.2885-3.5526-22.7266-15.0437-43.8179-18.2575-31.2538-4.7625-76.8911,7.681-94.9386,43.8178-24.0712,48.1979,13.2776,113.8371,43.8178,116.8476,22.0507,2.1737,26.6919-29.6687,62.0753-43.8178,47.7049-19.0763,120.3259,6.39,153.3625,58.4238,26.0932,41.0973,24.7924,94.5143,7.3029,135.105C373.3315,543.4642,292.4476,524.9266,196.9266,636.62c0,0-48.1747,56.331-58.4238,116.8476-1.9552,11.5448-.0863,32.04,3.6515,73.03.4353,4.7723,1.2891,12.9007,7.303,18.2574,9.0112,8.0267,23.8935,4.74,29.2119,3.6515,72.7333-14.8883,157.3148,12.7058,230.0436-29.2119,9.7664-5.629,34.8608-21.469,62.0753-21.9089,0,0,.6688-.0109,29.2119,0,28.5431-.0109,29.2114,0,29.2119,0,27.2146.44,52.3089,16.28,62.0753,21.9089,72.7289,41.9177,157.31,14.3236,230.0437,29.2119,5.3183,1.0887,20.2006,4.3752,29.2118-3.6515,6.0139-5.3567,6.8678-13.4851,7.303-18.2574,3.7383-40.99,5.6067-61.4849,3.6515-73.03C851.2482,692.9509,803.0735,636.62,803.0734,636.62Z"/><circle cx="251.6989" cy="395.6217" r="54.7723"/><circle cx="748.3011" cy="395.6217" r="54.7723"/></svg>