<svg id="图层_1" data-name="图层 1" xmlns="http://www.w3.org/2000/svg" xmlns:xlink="http://www.w3.org/1999/xlink" viewBox="0 0 1000 1000"><defs><linearGradient id="未命名的渐变_3" x1="-82.8377" y1="1024.0938" x2="-101.2315" y2="1002.7769" gradientTransform="matrix(0, -7.038, -7.038, 0, 7562.7388, -88.728)" gradientUnits="userSpaceOnUse"><stop offset="0" stop-color="#ff4695"/><stop offset="1" stop-color="#cc34e7"/></linearGradient><linearGradient id="未命名的渐变_4" x1="-15.1774" y1="989.0891" x2="-15.1774" y2="1013.0558" gradientTransform="matrix(-28.1535, -28.1535, -28.1535, 28.1535, 28240.1722, -28094.7667)" gradientUnits="userSpaceOnUse"><stop offset="0" stop-color="#3967ff"/><stop offset="1" stop-color="#b500fe"/></linearGradient><linearGradient id="未命名的渐变_18" x1="545.5065" y1="450.8349" x2="851.5389" y2="144.8026" gradientUnits="userSpaceOnUse"><stop offset="0" stop-color="#74c6ff"/><stop offset="0.0798" stop-color="#69b3ff"/><stop offset="0.2231" stop-color="#5996ff"/><stop offset="0.377" stop-color="#4c80ff"/><stop offset="0.5443" stop-color="#4370ff"/><stop offset="0.7349" stop-color="#3e67ff"/><stop offset="1" stop-color="#3c64ff"/></linearGradient></defs><title>Iconfont</title><circle cx="434.2175" cy="562.4948" r="88.384" transform="translate(-270.5645 471.7891) rotate(-45)" style="fill:url(#未命名的渐变_3)"/><path d="M146.4545,853.5611c-195.27-195.27-195.27-511.857-.0178-707.1089,195.27-195.27,511.8569-195.27,707.1266,0,195.2519,195.252,195.2519,511.8392-.0178,707.1089C658.2936,1048.813,341.7064,1048.813,146.4545,853.5611ZM273.0823,726.9333c125.3313,125.3313,328.5041,125.3313,453.8354,0s125.3491-328.5218.0177-453.8532-328.5218-125.3491-453.8709,0S147.7332,601.5842,273.0823,726.9333Z" transform="translate(0 0)" style="fill-rule:evenodd;fill:url(#未命名的渐变_4)"/><path d="M585.3659,7.3171l-113.4147,399.32A148.7378,148.7378,0,0,1,595.122,521.9512L991.4634,408.5366c-8.3179-43.5122-38.5616-171.1549-153.6585-276.8293C738.8756,40.8771,630.7205,15.363,585.3659,7.3171Z" transform="translate(0 0)" style="fill-rule:evenodd;fill:url(#未命名的渐变_18)"/></svg>