<svg id="图层_1" data-name="图层 1" xmlns="http://www.w3.org/2000/svg" viewBox="0 0 1000 1000"><title>MikuTools</title><rect width="1000" height="1000" style="fill:#fff"/><path d="M892.0006,173.1959,836.973,111.4577a24.5433,24.5433,0,0,0-32.2112-1.3422L690.68,210.7757l-13.4213-56.37a23.6457,23.6457,0,0,0-29.527-10.7371l-69.7911,22.8163c.4262-.2993-8.257,4.2686-12.0792,9.395-2.133,2.8608-4.3034,7.9761-2.6843,17.4478l32.2113,108.713L559.1509,442.9652H547.0717c-17.6355-12.7976-20.7795-24.9423-21.4742-30.8691-.9076-7.7446,1.6194-15.1108,6.7107-29.527,7.887-22.3326,14.4066-29.8756,10.7371-34.8955-2.2861-3.1274-6.7626-2.8624-20.1321-2.6843-14.6467.1951-26.4841.1063-34.2244,0V230.2367l19.4609-19.461-21.4741-87.2388H466.5435L445.74,210.1047l20.8031,20.8031V344.9893c-.04,0-15.0834-.3108-29.527,0-14.1474.3044-21.2531.5012-22.8163,2.6843-3.68,5.1389,3.585,12.7612,12.0793,36.2377,4.767,13.175,7.1418,19.931,6.7106,28.1848-.7356,14.0852-8.9917,24.7973-14.7635,30.8691H394.0682l-32.2113-83.2124c22.936-39.8568,24.1585-42.9482,24.1585-42.9483,14.2678-36.0814,2.94-72.0055,0-80.5282a122.7442,122.7442,0,0,0-26.8427-44.29c-41.0022-42.7987-101.6677-38.432-111.3973-37.58L288.04,253.7241l-52.3433,20.132Q214.893,225.5393,194.09,177.2223c-10.215,7.6324-29.2194,24.0136-40.264,51.0012-20.6069,50.3533-4.3,115.14,40.264,148.9771,25.7352,19.5407,53.89,23.4419,69.7911,24.1584q7.3818,20.8031,14.7635,41.6062H254.4861a19.2074,19.2074,0,0,0-14.7635,5.3686,19.0039,19.0039,0,0,0-5.3686,13.4214V812.0526A99.0272,99.0272,0,0,0,257.17,863.0538c20.66,24.0343,46.64,30.4876,55.0276,32.2113H671.89a98.729,98.729,0,0,0,73.8175-77.8439V464.4394a20.74,20.74,0,0,0-4.0264-13.4213,21.1969,21.1969,0,0,0-14.7635-8.0529H700.0752q3.3554-36.2376,6.7107-72.4753l18.79-52.3433L885.29,220.1707a50.603,50.603,0,0,0,6.7107-46.9748ZM447.7536,369.1478c2.9465-4.1436,9.1175-1.368,30.8692-1.3422,22.6794.0269,29.0346-2.975,32.2112,1.3422,5.1835,7.0445-9.905,17.5289-9.3949,37.58.5,19.6423,15.4856,29.4656,10.7371,36.2376-2.9241,4.17-9.2531,1.3673-30.8692,1.3422-22.537-.0263-29.051,3.0047-32.2112-1.3422-4.9788-6.8485,9.4668-16.7422,9.3949-36.2376C458.4162,386.509,442.8013,376.112,447.7536,369.1478Zm-170.4512,4.0264c-9.927,1.3047-32.7593,2.8668-56.37-9.395-31.517-16.3679-50.177-49.9712-51.0012-83.2124-.6984-28.1691,11.5857-49.041,17.4478-57.7118L223.6169,307.41l97.976-41.6062-34.8956-84.5546c24.0421,4.485,38.74,15.4371,45.6326,21.4742,36.6448,32.0976,42.6639,91.7063,22.8163,120.7923-.2521.37-8.2209,10.0886-24.1584,29.5269L369.91,442.9652H305.4872Zm444.247,91.2652V812.0526a82.1108,82.1108,0,0,1-56.37,60.3961H318.9086a79.5659,79.5659,0,0,1-59.054-61.7382V464.4394ZM704.1016,300.6988A313.8984,313.8984,0,0,0,690.68,331.568a322.1,322.1,0,0,0-16.1056,61.7382,327.6659,327.6659,0,0,0-4.0264,49.659H585.9936l38.922-143.6085q-16.7768-53.6854-33.5534-107.3709L651.7583,169.17l22.8163,92.6074L819.5253,135.6161l52.3433,59.054Z"/><path d="M674.5746,261.7769,651.7583,169.17l-60.3961,22.8163q16.7766,53.6855,33.5534,107.3709-7.3818,25.5006-14.7635,51.0012h75.16l18.79-49.6591L871.8686,194.67l-52.3433-59.054Z" style="fill:#7cc164"/><path d="M513.7634,628.9827a14.6034,14.6034,0,0,1-3.0423,15.6764,13.8143,13.8143,0,0,1-16.8421,2.3034L490,651.2917l2.7671,2.8384,1.6536-1.69a2.1346,2.1346,0,0,1,3.0635,0l13.418,13.846a2.2455,2.2455,0,0,1,0,3.1279l-6.1257,6.2575a2.1332,2.1332,0,0,1-3.0625,0l-13.4181-13.8456a2.2465,2.2465,0,0,1,0-3.1283l1.5108-1.5426-2.6386-2.7025L468.6105,675.163a4.266,4.266,0,0,1-6.1254,0l-1.531-1.5647a4.4921,4.4921,0,0,1,0-6.2577l21.14-18.0869-14.041-14.3807-4.4327-.0019-5.1293-8.4289,4.1317-4.2267,8.4387,5.2745.0571,4.4363L485.32,646.4925l4.1327-3.5357a14.5739,14.5739,0,0,1,1.3609-18.6336,13.8609,13.8609,0,0,1,15.2757-3.1451l-9.1005,9.168,7.6558,7.8215Zm-47.7256,40.5635a2.1339,2.1339,0,0,0-3.0631,0,2.249,2.249,0,0,0,0,3.13,2.1341,2.1341,0,0,0,3.0631,0,2.2476,2.2476,0,0,0,0-3.13Zm0,0"/><path d="M393.4989,711.7423l5.6148,13.7953q.4332,1.0164,1.7827,5.015.5-1.6161,1.8661-5.015l5.4481-13.7953h5.4815v23.4754H410.01V719.6563q0-1.0331.0333-2.0743t.0667-2.091q-.3833,1.0664-.6332,1.7411t-1.1,2.8574l-5.948,15.1282h-3.0656l-6.1646-15.3115q-.983-2.4825-1.6327-4.4152.0333,1.0331.0583,2.0493t.025,2.0493v15.6281h-3.6655V711.7423Z"/><path d="M423.6054,735.2177H419.54V711.7423h4.0653Z"/><path d="M442.6322,735.2177l-6.881-10.73-2.2159,2.1492v8.5805h-4.0486V711.7423h4.0486v10.8463l8.4138-10.8463h4.815l-8.0306,10.1132,8.7971,13.3622Z"/><path d="M459.21,735.5509q-4.5485,0-6.931-2.2992t-2.3825-6.6978V711.7423h4.0486V726.254a6.5032,6.5032,0,0,0,1.4246,4.49,5.0378,5.0378,0,0,0,3.9569,1.5911,5.1055,5.1055,0,0,0,4.0986-1.6494,6.8936,6.8936,0,0,0,1.4162-4.6318V711.7423h4.032v14.5451q0,4.4817-2.4908,6.8726T459.21,735.5509Z"/><path d="M499.163,711.7423v3.2656h-7.0143v20.21h-4.032v-20.21h-6.9143v-3.2656Z"/><path d="M523.7713,723.3717a14.5984,14.5984,0,0,1-1.3579,6.49,9.6137,9.6137,0,0,1-3.8987,4.2318,11.9344,11.9344,0,0,1-6.04,1.4579q-5.3648,0-8.3138-3.2073t-2.949-8.9719q0-5.7147,2.9656-8.847t8.3305-3.1323q5.3649,0,8.3139,3.1656T523.7713,723.3717Zm-4.1319,0a10.0824,10.0824,0,0,0-1.8328-6.4728,6.4064,6.4064,0,0,0-5.2982-2.2742,6.5053,6.5053,0,0,0-5.3648,2.2575q-1.8327,2.2577-1.8327,6.49a10.4406,10.4406,0,0,0,1.8577,6.5977,6.3507,6.3507,0,0,0,5.3065,2.3659,6.4248,6.4248,0,0,0,5.3482-2.2825Q519.6393,727.77,519.6394,723.3717Z"/><path d="M549.5625,723.3717a14.5984,14.5984,0,0,1-1.3579,6.49,9.6141,9.6141,0,0,1-3.8986,4.2318,11.9351,11.9351,0,0,1-6.04,1.4579q-5.3647,0-8.3138-3.2073t-2.949-8.9719q0-5.7147,2.9657-8.847t8.3305-3.1323q5.3647,0,8.3138,3.1656T549.5625,723.3717Zm-4.1319,0a10.083,10.083,0,0,0-1.8327-6.4728,6.4066,6.4066,0,0,0-5.2982-2.2742,6.5053,6.5053,0,0,0-5.3649,2.2575q-1.8327,2.2577-1.8327,6.49a10.4412,10.4412,0,0,0,1.8577,6.5977,6.3507,6.3507,0,0,0,5.3065,2.3659,6.4248,6.4248,0,0,0,5.3482-2.2825Q545.4306,727.77,545.4306,723.3717Z"/><path d="M558.16,711.7423v20.26h9.03v3.2156H554.0943V711.7423Z"/><path d="M585.367,728.6032a6.3445,6.3445,0,0,1-2.1409,5.1566,9.4114,9.4114,0,0,1-6.19,1.7911,9.0728,9.0728,0,0,1-5.6064-1.5495,7.3993,7.3993,0,0,1-2.6575-4.6817l3.7654-.65a4.3541,4.3541,0,0,0,4.6984,3.8154q4.2319,0,4.2319-3.6488a3.1924,3.1924,0,0,0-.4165-1.7161,3.4607,3.4607,0,0,0-1.15-1.1163,7.603,7.603,0,0,0-1.7244-.758q-.9914-.3082-2.1243-.6415a14.1029,14.1029,0,0,1-3.957-1.6328,5.7762,5.7762,0,0,1-1.8827-2.1326,6.9657,6.9657,0,0,1-.6581-3.1989,5.6745,5.6745,0,0,1,1.966-4.5984,8.2531,8.2531,0,0,1,5.4648-1.65,8.9032,8.9032,0,0,1,5.2066,1.3246,6.9325,6.9325,0,0,1,2.5908,4.1569l-3.8154.6831a4.22,4.22,0,0,0-6.6061-2.3908,2.938,2.938,0,0,0-.908,2.2908,3.129,3.129,0,0,0,.4082,1.6745,3.4892,3.4892,0,0,0,1.2246,1.1412,16.8057,16.8057,0,0,0,3.1489,1.2,23.1172,23.1172,0,0,1,3.8987,1.4912,6.7183,6.7183,0,0,1,1.8493,1.4245,5.3323,5.3323,0,0,1,1.033,1.8161A7.4771,7.4771,0,0,1,585.367,728.6032Z"/></svg>