<svg id="图层_1" data-name="图层 1" xmlns="http://www.w3.org/2000/svg" viewBox="0 0 1000 1000"><title>SpeedTest</title><rect width="1000" height="1000" style="fill:#fff"/><path d="M488.375,630.8125l-63.9687-66.875L636.625,377.9062l37.8125,40.6875ZM764.5313,819.7812C831.4062,752.9063,875,659.875,875,555.2188c0-206.375-168.5938-375-375-375s-375,168.625-375,375c0,104.6875,40.6875,197.6875,110.4688,264.5624l52.3125-52.3437c-55.2188-55.2187-87.1875-127.9062-87.1875-212.1875-.2591-165.1329,133.3975-299.21,298.5305-299.4687q.4378-.0007.8757,0c165.133-.2246,299.1818,133.46,299.4063,298.5931q0,.4067,0,.8132c0,81.4062-34.875,157-87.1875,212.2187Z"/></svg>