<svg id="图层_1" data-name="图层 1" xmlns="http://www.w3.org/2000/svg" viewBox="0 0 1000 1000"><title>StockSnap</title><circle cx="500" cy="500" r="500" style="fill:#fff"/><path d="M499.7573,678.5439c-87.055,0-157.767-71.288-157.767-158.6861,0-87.4045,70.712-158.6926,157.767-158.6926s157.767,71.288,157.767,158.6926C657.5243,607.2494,586.8123,678.5439,499.7573,678.5439Zm0-277.8253c-65.21,0-118.2848,53.3852-118.2848,118.9774s53.0744,118.9774,118.2848,118.9774S618.0421,585.2883,618.0421,519.696,564.9677,400.7187,499.7573,400.7187Z" style="fill:#2e323f"/><path d="M883.0807,800H116.3951a21.4645,21.4645,0,0,1-21.3162-21.442V307.2106a21.4645,21.4645,0,0,1,21.3162-21.4421H307.1929l64.8223-78.0313A21.0228,21.0228,0,0,1,388.4392,200H611.5608a21.558,21.558,0,0,1,16.424,7.7368l64.8223,78.0313H883.6049a21.4645,21.4645,0,0,1,21.3162,21.4421V778.558C904.3969,790.3343,894.9619,800,883.0807,800ZM137.7114,757.1159H861.9392v-428.47H682.4984a21.5509,21.5509,0,0,1-16.424-7.73l-64.8223-78.0314H398.2237l-64.8223,78.0314a21.0228,21.0228,0,0,1-16.424,7.73H137.7114v428.47Z" style="fill:#2e323f"/></svg>