<svg id="图层_1" data-name="图层 1" xmlns="http://www.w3.org/2000/svg" viewBox="0 0 1000 1000"><title>ToEpub</title><rect width="1000" height="1000" style="fill:#fff"/><path d="M291.9774,704.6046H197.8531v1.9774c0,7.91,2.3729,13.8418,7.5141,17.7966a28.2388,28.2388,0,0,0,17.0057,5.5367,91.5541,91.5541,0,0,0,15.8192-1.5819c6.7232-1.1865,14.2373-4.35,22.1469-10.2825l25.7062,33.22a78.4366,78.4366,0,0,1-15.8192,11.8644,86.9274,86.9274,0,0,1-15.4237,6.7232,71.3044,71.3044,0,0,1-15.4238,3.1638c-5.1412.3955-10.2825.791-15.4237.791a111.5387,111.5387,0,0,1-28.0791-3.5593,65.6844,65.6844,0,0,1-23.7288-11.0735,53.9567,53.9567,0,0,1-16.2147-18.983c-3.9548-7.5142-5.9322-16.61-5.9322-26.8927V671.78c0-10.678,1.9774-19.774,5.9322-27.6836a65.22,65.22,0,0,1,15.4237-20.1695,69.4523,69.4523,0,0,1,22.5424-12.26,89.3469,89.3469,0,0,1,27.2881-3.9548,93.4251,93.4251,0,0,1,28.4746,4.35,68.7526,68.7526,0,0,1,22.5424,12.26,55.1484,55.1484,0,0,1,15.0282,20.1695,67.7832,67.7832,0,0,1,5.5368,27.6836v32.4294Zm-48.6441-32.0339c0-6.7232-2.3729-11.469-6.7232-15.0283a25.2857,25.2857,0,0,0-15.8192-5.1412,24.8788,24.8788,0,0,0-16.2146,5.9322,19.1308,19.1308,0,0,0-7.1187,15.4237v1.1864h45.48v-2.3728ZM427.2316,546.4125c12.6554,0,23.7288,1.9774,32.4294,5.9322a61.9436,61.9436,0,0,1,22.1469,16.2147,72.3523,72.3523,0,0,1,12.6553,22.9378,86.0782,86.0782,0,0,1,3.9548,26.4972,74.8436,74.8436,0,0,1-4.7457,26.4972,65.8173,65.8173,0,0,1-14.2373,22.9378,68.867,68.867,0,0,1-22.9379,16.2147q-13.644,5.9322-30.8475,5.9322H380.5649v82.26H328.3615V546.4125Zm-46.6667,97.6836h38.3616c9.887,0,17.0057-2.3729,20.9605-7.5141,4.35-5.1413,6.3277-11.0735,6.3277-18.1921a28.712,28.712,0,0,0-5.9322-18.1921c-3.9548-5.1413-11.0735-7.5141-21.3559-7.5141H380.565ZM568.418,609.6893v99.2656a23.896,23.896,0,0,0,1.9774,9.4915,23.0409,23.0409,0,0,0,4.35,5.9322,10.88,10.88,0,0,0,5.9322,3.1638,15.3715,15.3715,0,0,0,5.9322.791,44.28,44.28,0,0,0,13.8419-2.3729c4.7457-1.5819,11.0734-4.7458,18.983-9.887v-106.78h48.6441V772.2317H624.5763l-3.1639-13.0508a87.4941,87.4941,0,0,1-15.8192,8.305,78.3361,78.3361,0,0,1-13.8418,4.35,74.053,74.053,0,0,1-11.8644,1.9774,82.7783,82.7783,0,0,1-9.4915.3955q-14.2373,0-23.7288-4.7458A42.3115,42.3115,0,0,1,531.243,756.017a52.4174,52.4174,0,0,1-8.3051-19.774,119.2478,119.2478,0,0,1-2.7684-24.52V608.8983h48.2486ZM850,714.0961c0,20.1695-5.1412,35.5932-15.0282,45.0847-9.887,9.887-23.7288,14.6328-41.13,14.6328a64.1484,64.1484,0,0,1-20.565-3.9548c-7.91-2.3729-15.4237-5.9322-22.5424-9.4915l-3.1638,12.26H704.0678V537.7119h48.644v83.4463q13.6441-7.7118,24.9153-10.6779a81.0827,81.0827,0,0,1,19.774-2.7684,64.7222,64.7222,0,0,1,24.52,4.35c6.7231,2.7683,12.26,6.7231,16.2147,12.26,4.35,5.1412,7.1186,11.4689,9.0961,18.5875S850,657.9379,850,667.0339Zm-48.644-40.7345q0-11.2712-4.7457-15.4237a16.8921,16.8921,0,0,0-11.4689-3.9548q-6.5254,0-15.4237,3.5593a91.86,91.86,0,0,0-17.4011,9.096v53.7854a21.313,21.313,0,0,0,6.7231,3.1638c2.7684,1.1864,5.5367,1.9774,8.7006,3.1638,3.1638.791,5.9322,1.9774,9.096,2.3729a29.67,29.67,0,0,0,7.91.791,15.8389,15.8389,0,0,0,11.4689-4.7458c3.1639-3.1638,4.7458-8.3051,4.7458-15.0282v-36.78Z" style="fill:#e37863"/><path d="M448.5876,276.13V455.2825H396.3842V276.13h-57.74V229.0678H505.5367V276.13Z" style="fill:#47a4a5"/><path d="M526.4972,330.7062a60.7346,60.7346,0,0,0-11.8644,12.6554,58.8512,58.8512,0,0,1,5.5367-20.17,37.498,37.498,0,0,1,6.7232-10.6779,62.6444,62.6444,0,0,1,9.096-8.7006c6.3277-5.1413,14.2373-9.0961,23.3333-12.26l5.9322-1.1864,5.9322-1.1865v24.52c-6.3276.791-11.8644,1.5819-16.61,3.1638A77.8,77.8,0,0,0,526.4972,330.7062Zm115.0847-26.8926c13.0509,11.0734,19.774,26.8926,19.774,47.4576v39.548A84.3333,84.3333,0,0,1,660.17,405.452a67.2944,67.2944,0,0,1-3.9548,12.6554,53.7208,53.7208,0,0,1-15.0282,19.774,65.788,65.788,0,0,1-23.3334,12.26,51.7875,51.7875,0,0,1-10.678,2.3728c-3.5593.3955-7.5141,1.1865-11.4689,1.582,2.3729-1.9774,4.7458-3.9548,6.7232-5.9322a45.5221,45.5221,0,0,0,5.5367-6.7232,59.5357,59.5357,0,0,0,12.26-28.0791,23.34,23.34,0,0,0,.791-5.5367,29.9386,29.9386,0,0,0,.3954-5.9322,74.3143,74.3143,0,0,0-.3954-7.5141,91.6583,91.6583,0,0,0-2.7684-15.4238,9.307,9.307,0,0,1-.791-3.1638c-.3955-.791-.3955-1.9774-.7909-3.1639l24.9152-24.9152-60.113-59.7175a10.9488,10.9488,0,0,1,3.5593-.3955h3.5594C610.339,287.2034,628.1356,292.74,641.5819,303.8136Z" style="fill:#556a72"/><path d="M611.9209,409.4068a22.3024,22.3024,0,0,1-1.5819,4.7458,12.3733,12.3733,0,0,1-1.9774,3.9548c-.791,1.9774-2.3729,5.1412-4.35,9.096a41.1879,41.1879,0,0,1-8.7006,12.26,49.375,49.375,0,0,1-13.4463,9.887c-5.5367,2.7684-11.4689,3.5593-18.5876,2.3729-11.8644-2.3729-21.7514-6.7232-29.661-13.4464a57.3114,57.3114,0,0,1-12.6553-14.6327c-.791-1.5819-1.582-3.5594-2.3729-5.1413s-1.1865-3.5593-1.9774-5.5367V411.78l-.791-3.9548a5.8639,5.8639,0,0,1-.3955-2.7684c0-.7909-.3954-1.9774-.3954-2.7683v-4.7458a10.9485,10.9485,0,0,1-.3955-3.5593v-5.5368a68.4767,68.4767,0,0,1,5.1412-27.2881,53.72,53.72,0,0,1,15.0283-19.774,72.8181,72.8181,0,0,1,23.3333-12.26,106.2538,106.2538,0,0,1,26.1017-3.9548V308.9548l38.7571,38.7571-38.7571,38.757V368.6723a33.4982,33.4982,0,0,0-6.7232,1.5819,23.6839,23.6839,0,0,0-6.3277,3.1639c-5.1412,3.5593-7.91,9.887-7.91,18.1921a1.4528,1.4528,0,0,0,.3955,1.1864c0,.3955.3955,1.5819.791,3.1638h.3955a5.7158,5.7158,0,0,0,.7909,2.7684c0,.3955.3955.791.791,1.1864v1.1865c.3955.3955.791.791.791,1.1864l.7909.791.791.791c.7909.7909,1.1864,1.1864,1.5819,1.1864a28.7555,28.7555,0,0,0,17.0056,5.1412,27.57,27.57,0,0,0,16.61-5.1412c5.1413-3.1638,7.91-9.4915,7.91-18.1921V371.4407c.3955,1.5819.3955,4.35.791,7.1186a82.7446,82.7446,0,0,1,.3955,10.2825,53.0831,53.0831,0,0,1-.3955,8.3051c-.3955,2.3728-.3955,4.35-.791,6.3276a29.0708,29.0708,0,0,1,0,5.9323Z" style="fill:#47a4a5"/></svg>