<?xml version="1.0" encoding="utf-8"?>
<!-- Generator: Adobe Illustrator 23.1.0, SVG Export Plug-In . SVG Version: 6.00 Build 0)  -->
<svg version="1.1" id="图层_1" xmlns="http://www.w3.org/2000/svg" xmlns:xlink="http://www.w3.org/1999/xlink" x="0px" y="0px"
	 viewBox="0 0 251.23 251.23" style="enable-background:new 0 0 251.23 251.23;" xml:space="preserve">
<style type="text/css">
	.st0{fill-rule:evenodd;clip-rule:evenodd;fill:#FFFFFF;}
	.st1{fill:#040000;}
	.st2{fill-rule:evenodd;clip-rule:evenodd;fill:#F2F2F2;}
	.st3{fill-rule:evenodd;clip-rule:evenodd;fill:#040000;}
</style>
<path class="st0" d="M196.75,251.23H54.49C24.39,251.23,0,226.84,0,196.75V54.49C0,24.39,24.39,0,54.49,0h142.26
	c30.09,0,54.49,24.39,54.49,54.49v142.26C251.23,226.84,226.84,251.23,196.75,251.23z"/>
<g>
	<path class="st1" d="M61.7,96.84l-9.43-5.57c-0.15-0.09-0.32-0.14-0.5-0.15l-8.88-0.56c-0.32-0.01-0.65,0.11-0.88,0.34
		c-0.23,0.24-0.34,0.57-0.3,0.89l2.22,19.52c0.05,0.41,0.31,0.75,0.69,0.91c0.13,0.05,0.28,0.08,0.42,0.08
		c0.26,0,0.51-0.09,0.71-0.26l12.77-10.6l3.33-2.79c0.28-0.23,0.43-0.58,0.4-0.95C62.21,97.35,62.01,97.02,61.7,96.84z"/>
	<g>
		<polygon class="st2" points="43.16,150.63 33.65,151.75 28.05,140.59 39.8,129.43 43.16,150.63 43.16,150.63 		"/>
		<g>
			<path class="st1" d="M185.17,69.15c-0.09-0.52-0.53-0.9-1.05-0.92c-0.56-0.04-0.99,0.33-1.12,0.83l-27.24,105.46
				c-0.13,0.5,0.1,1.02,0.55,1.26c0.17,0.09,0.35,0.13,0.53,0.13c0.31,0,0.61-0.13,0.83-0.37l38.23-42.78
				c0.23-0.25,0.33-0.6,0.27-0.93L185.17,69.15z"/>
			<g>
				<path class="st1" d="M152.45,126.87L92.31,92.3c-0.28-0.16-0.61-0.19-0.91-0.09c-0.3,0.1-0.55,0.33-0.67,0.62l-37.31,88.09
					c-0.18,0.44-0.07,0.94,0.28,1.26c0.21,0.19,0.48,0.29,0.75,0.29c0.18,0,0.37-0.05,0.54-0.14l97.44-53.52
					c0.35-0.19,0.57-0.56,0.58-0.97C153.01,127.44,152.8,127.07,152.45,126.87z"/>
				<polygon class="st2" points="151.28,52.03 209.17,72.07 209.17,142.2 42.19,150.55 36.07,111.03 52.21,97.12 151.28,52.03 
					151.28,52.03 				"/>
			</g>
		</g>
	</g>
	<path class="st1" d="M49.94,133.74l-1.66-11.14c-0.04-0.28-0.18-0.53-0.4-0.7l-11.04-8.91c-0.36-0.29-0.87-0.33-1.27-0.09
		c-0.4,0.24-0.61,0.7-0.52,1.16l2.76,14.48c0.06,0.32,0.26,0.6,0.55,0.76l9.94,5.57c0.17,0.1,0.36,0.14,0.54,0.14
		c0.22,0,0.44-0.07,0.63-0.2C49.82,134.58,50,134.16,49.94,133.74z"/>
	<path class="st1" d="M210.37,71.42c-0.09-0.51-0.53-0.89-1.05-0.91c-0.5-0.03-0.99,0.32-1.12,0.82l-31.71,118.03
		c-0.13,0.49,0.09,1.02,0.54,1.26c0.17,0.09,0.35,0.14,0.54,0.14c0.3,0,0.6-0.12,0.82-0.36l44.51-47.88
		c0.24-0.26,0.34-0.61,0.28-0.96L210.37,71.42z"/>
	<path class="st3" d="M162.42,96.49c0.08-0.2,0.1-0.43,0.05-0.64l-10.02-46.25c-0.07-0.33-0.29-0.6-0.58-0.76
		c-0.3-0.15-0.65-0.16-0.95-0.03l-40.66,17.83c-0.28,0.12-0.49,0.35-0.6,0.63L60.09,201.02c-0.16,0.43-0.04,0.91,0.3,1.22
		c0.21,0.19,0.48,0.29,0.74,0.29c0.17,0,0.34-0.04,0.5-0.12l73.52-36.78c0.06-0.03,0.11-0.08,0.17-0.13l0.41-0.2l26.73-68.54
		l-0.05-0.22L162.42,96.49z"/>
</g>
</svg>
