<svg id="图层_1" data-name="图层 1" xmlns="http://www.w3.org/2000/svg" viewBox="0 0 1000 200"><title>logo@2x</title><rect width="1000" height="200" style="fill:none"/><circle cx="85" cy="100" r="85" style="fill:#0084ff"/><path d="M157.25,500A72.25,72.25,0,1,1,85,427.75,72.24687,72.24687,0,0,1,157.25,500" transform="translate(0 -400)" style="fill:#fff"/><polygon points="42.927 57.927 78.99 106.01 127.073 142.073 91.01 93.99 42.927 57.927" style="fill:#a5a5a5"/><polygon points="25.504 100 85 108.499 144.496 100 85 91.501 25.504 100" style="fill:#a5a5a5"/><polygon points="42.927 142.073 91.01 106.01 127.073 57.927 78.993 93.986 42.927 142.073" style="fill:#a5a5a5"/><polygon points="85 159.496 97.749 100 72.251 100 85 159.496" style="fill:blue"/><polygon points="72.251 100 97.749 100 85 40.504 72.251 100" style="fill:red"/><path d="M89.50781,495.49219a6.375,6.375,0,1,1-9.01562,0,6.37242,6.37242,0,0,1,9.01562,0" transform="translate(0 -400)" style="fill:#fff"/><path d="M264.20791,489.605a7.74823,7.74823,0,0,1-.92067,3.94738,10.7691,10.7691,0,0,1-2.96054,3.09224,18.37919,18.37919,0,0,0-3.94738,4.2108,17.21514,17.21514,0,0,0-2.56606,4.93423q-1.31643,4.47453-7.49963,8.61819-6.18706,4.14494-9.73739,3.355a28.16626,28.16626,0,0,0-4.86805-.52619,8.67778,8.67778,0,0,0-2.82883.32895,4.16412,4.16412,0,0,1-1.4475.32895q-.59269,0-.59237-2.89436,0-10.26357,5.39489-10.92147,2.498-.39417,6.84238-8.94714,4.34154-8.552,4.34186-11.84215a3.28014,3.28014,0,0,0-.85514-1.4475,3.07488,3.07488,0,0,1-.85513-1.77645c0-.48121.19724-.72343.59172-.72343a5.7782,5.7782,0,0,1,1.513.26278,6.1796,6.1796,0,0,0,1.71092.26341,4.57281,4.57281,0,0,0,1.64474-.329,6.14128,6.14128,0,0,1,2.17093-.32894,17.80885,17.80885,0,0,1,9.80292,3.355Q264.206,485.92108,264.20791,489.605Zm41.053-8.02647a4.12826,4.12826,0,0,1,2.10539.92131q1.31355.92227,5.526,1.31579,21.71059,1.44944,21.7106,19.34243a20.48022,20.48022,0,0,1-2.43371,8.68372q-2.43627,5.00265-5.06593,5.0004a6.76938,6.76938,0,0,1-2.82883-.7896,7.11652,7.11652,0,0,1-2.82947-2.56606,22.01284,22.01284,0,0,0-4.21015-4.27633q-3.029-2.498-10.00016-7.49963-2.763-2.10379-2.7633-3.15778,0-1.05239,1.842-1.053l3.02672.39512c.52618,0,.7896-.3495.7896-1.053q0-1.05141-2.17157-6.11831a66.33886,66.33886,0,0,0-3.355-7.03962,2.12711,2.12711,0,0,1-.39448-1.3158C304.20855,481.842,304.55806,481.57857,305.26093,481.57857Z" transform="translate(0 -400)" style="fill:#fff"/><path d="M433.81423,455.13163a31.70748,31.70748,0,0,1,5.65765-.52683,4.39589,4.39589,0,0,1,4.01292,1.97369,9.467,9.467,0,0,1,1.25026,5.13211q0,2.23871-2.63159,2.96053-2.63384.72471-12.36833,1.11791a162.50074,162.50074,0,0,1-12.23727,11.05318,11.63512,11.63512,0,0,1,1.71092,4.868,74.87311,74.87311,0,0,0,12.63175-2.36817,23.01463,23.01463,0,0,1,6.18384-.92131,4.92638,4.92638,0,0,1,4.34251,2.1054,7.97288,7.97288,0,0,1,1.44686,4.60528q0,2.50085-2.63159,2.49988a35.97577,35.97577,0,0,1-6.05214-.59173,37.87221,37.87221,0,0,0-6.4479-.59236q-8.0268,0-25.26286,5.92107-.39512,3.81825-.39512,5.46042c0,1.098.30646,1.64474.92131,1.64474q.9194,0,9.21056-1.57857a65.31877,65.31877,0,0,0,10.92083-2.69776,11.71893,11.71893,0,0,1,4.3425-1.11855,10.41765,10.41765,0,0,1,3.4212.59236,3.404,3.404,0,0,1,2.17093,1.64474,9.72334,9.72334,0,0,1,.46065,3.5529q0,2.50085-.7896,3.355-.78929.85771-3.75014.85514-2.96054,0-14.47373,2.895-11.51544,2.896-14.342,4.47357a6.16718,6.16718,0,0,1-6.90792.92131,5.56772,5.56772,0,0,1-2.36882-1.18472,13.61117,13.61117,0,0,1-1.05237-3.61844,24.91324,24.91324,0,0,1-.6579-4.93422,5.06738,5.06738,0,0,1,.92131-3.09161,3.45406,3.45406,0,0,0,.789-2.43434q-16.4487,7.76466-20.65757,7.76305-2.50085,0-2.49988-1.97369a19.2638,19.2638,0,0,1,.6579-4.60528,10.44769,10.44769,0,0,1,1.18408-3.28948,2.28528,2.28528,0,0,1,1.57857-.78961q3.2882-.39416,15.724-4.93422,12.43386-4.53911,15.46058-6.51279,3.02509-1.9737,3.02607-3.02672a2.27872,2.27872,0,0,0-1.05238-1.842,3.75783,3.75783,0,0,1-1.97369.6579q-2.23872,0-2.63159-3.5529a3.50716,3.50716,0,0,0-1.57921-.39448q-1.97368,0-7.82859,3.355-5.8565,3.35567-7.69752,3.35566-1.84455,0-2.49988-2.76329a29.32242,29.32242,0,0,1-.6579-6.71068q0-3.94738.78961-4.99976.78929-1.05141,3.02607-.85513,2.23582.19659,3.81567.19724a57.00978,57.00978,0,0,0,11.18425-1.3158,12.16713,12.16713,0,0,0-1.57857-5.32935q-1.57953-3.08967-4.3425-7.4341-2.763-4.34154-2.7633-5.197c0-.56988.17475-.85578.52683-.85578a7.85115,7.85115,0,0,1,2.10476.59236,7.60154,7.60154,0,0,0,2.43435.59237,9.96228,9.96228,0,0,0,1.64474-.13171,10.52537,10.52537,0,0,1,1.71091-.13171,11.25571,11.25571,0,0,1,8.22372,3.48672,11.559,11.559,0,0,1,3.48672,8.48713,15.51574,15.51574,0,0,1-.26342,2.7633,97.97055,97.97055,0,0,1,14.342-4.34251,55.62614,55.62614,0,0,0,1.053-8.61819,8.21178,8.21178,0,0,0-.72407-3.94738,4.119,4.119,0,0,0-2.89437-1.71092q-2.17125-.45873-2.17093-1.11791,0-.65725,2.10476-1.31579a14.47813,14.47813,0,0,1,4.3425-.6579,10.88337,10.88337,0,0,1,7.3024,2.30264,7.50613,7.50613,0,0,1,2.69777,5.9866,3.62838,3.62838,0,0,1-.78961,2.63159Q433.54952,453.15955,433.81423,455.13163ZM385.39263,492.5a1.31348,1.31348,0,0,0-1.24961-.92131,8.50435,8.50435,0,0,0-2.895.92131q-2.04114.92228-2.03922,1.38133c0,.30839.08609.50563.26277.59236ZM416.84,521.842a78.60071,78.60071,0,0,1,6.44791-9.27609,5.54708,5.54708,0,0,1,4.01291-2.17093,26.55228,26.55228,0,0,1,5.19764.6579q3.15714.65917,3.15778,4.07845,0,3.029-3.02671,12.3028-3.028,9.27672-3.02607,11.909,0,2.629,1.25026,3.55161a16.2164,16.2164,0,0,0,4.67081,1.90687,29.661,29.661,0,0,0,8.15818.98685q11.447,0,14.40756-4.34058a23.82106,23.82106,0,0,0,3.61843-11.31595q.26213-2.1038.7896-2.1054.52427,0,.78961,2.17093a22.7407,22.7407,0,0,0,1.57857,5.46042,32.37434,32.37434,0,0,1,1.90815,7.23686,44.853,44.853,0,0,1,.59237,6.31684,4.93589,4.93589,0,0,1-.6579,3.0916,3.83043,3.83043,0,0,1-2.23711.98685q-1.57855.26212-5.9866.85578a70.503,70.503,0,0,1-9.34226.59108,82.857,82.857,0,0,1-12.89517-1.3158q-7.96222-1.31837-9.99952-5.001a17.07661,17.07661,0,0,1-2.03986-8.419,47.75981,47.75981,0,0,1,1.4475-9.67185,48.03337,48.03337,0,0,0,1.4475-8.81608,12.14637,12.14637,0,0,0-.59236-4.07908q-.59172-1.64314-1.513-1.64475-1.97368,0-8.28924,10.92148-1.05527,6.18609-2.895,14.60608a89.00959,89.00959,0,0,1-2.17093,8.94585,1.09264,1.09264,0,0,1-.98685.52683q-1.71156,0-3.5529-3.88056a16.75976,16.75976,0,0,1-1.842-7.1058,21.935,21.935,0,0,1,.98684-6.4479,20.53646,20.53646,0,0,0,.98685-5.98661q0-5.39391-1.842-5.39488-.92229,0-1.842,1.71028-3.68525,7.89475-7.36857,11.71107-1.3174,1.44943-3.48673,6.77493a33.6952,33.6952,0,0,1-3.81631,7.43475,20.27424,20.27424,0,0,1-4.67081,4.14526q-3.028,2.03922-3.75014,2.04051-.72473,0-.72343-1.90944a29.05249,29.05249,0,0,1,.65789-5.26318,18.67056,18.67056,0,0,1,1.57857-5.06529,57.015,57.015,0,0,1,3.94738-5.78937,13.8795,13.8795,0,0,1-2.36817-6.84238,22.44316,22.44316,0,0,1,.72343-6.71,32.59136,32.59136,0,0,1,3.02671-5.85554q2.3004-3.74982,2.63159-3.75014c.2178,0,.32895.22037.32895.65789a9.82233,9.82233,0,0,1-.52619,2.36882,15.001,15.001,0,0,0-.52683,4.34186q0,2.63384.65789,3.42119a13.65336,13.65336,0,0,1,2.69777,3.48673,13.84939,13.84939,0,0,1,.98684,4.53974,24.67076,24.67076,0,0,0,8.48649-9.5395q2.96053-5.85361,4.07908-6.90792a4.14141,4.14141,0,0,1,2.96054-1.053,8.03528,8.03528,0,0,1,4.47357,1.053Q415.13,518.02824,416.84,521.842Zm4.8687-56.184a35.29889,35.29889,0,0,0-11.57873,1.57856,34.92854,34.92854,0,0,1-1.053,5.92108,17.26222,17.26222,0,0,1,5.26318,1.57921Q419.99615,469.87005,421.70867,465.658Z" transform="translate(0 -400)" style="fill:#fff"/><path d="M587.23526,516.4471a98.86638,98.86638,0,0,0,1.05238-12.10492,22.01193,22.01193,0,0,0-.8545-6.77621,9.12033,9.12033,0,0,0-2.82947-4.21079,4.65444,4.65444,0,0,1-1.97369-3.5529,3.52392,3.52392,0,0,1,1.97369-3.0916,8.52312,8.52312,0,0,1,4.47421-1.18473q4.60464,0,7.9603,4.3425a14.98656,14.98656,0,0,1,3.355,9.34227,13.239,13.239,0,0,1-.13107,1.842,159.37023,159.37023,0,0,0-2.23711,19.47349,41.49988,41.49988,0,0,1-4.01291,15.724q-3.75078,8.2205-5.9866,8.22243-1.44944,0-3.02736-3.42055-1.57857-3.42216-1.57792-9.6044,0-1.97368.13106-4.3425a53.60779,53.60779,0,0,0-14.80268-2.36817,89.08112,89.08112,0,0,0-14.53926,1.31579,21.59287,21.59287,0,0,1-.13235,4.47357,1.39755,1.39755,0,0,1-1.44686,1.31579q-1.18344,0-6.579-3.94738-10.00144,2.50085-14.73714,4.8687a61.94044,61.94044,0,0,0-11.44767,8.02647q-5.13081,4.34056-8.68372,4.34057-3.55226,0-6.25-4.66952-2.69841-4.66922-2.69712-6.18449a4.49922,4.49922,0,0,1,1.57921-3.09224,12.629,12.629,0,0,0,3.55161-9.34227,38.16621,38.16621,0,0,0-2.49923-12.76281,19.35464,19.35464,0,0,1-1.05238-6.64514,14.55267,14.55267,0,0,1,2.30264-7.56582q2.29943-3.81438,4.53846-3.81567a1.74862,1.74862,0,0,1,1.38261.52619q.45873.52714-.06682,1.64474a8.65839,8.65839,0,0,0-.52554,3.48672q0,2.36881,2.49923,6.44791a41.46978,41.46978,0,0,1,5.92107,20.65757q10.78785-2.63,21.57954-5.92107.26212-8.551.39448-21.71059l.26341-23.42088a53.98311,53.98311,0,0,0-1.38132-11.25042,47.73107,47.73107,0,0,0-2.36818-8.48648,8.6467,8.6467,0,0,1-.98684-2.895q0-.78929,1.77581-.78961,1.77708,0,7.23686,1.90816a18.37632,18.37632,0,0,1,8.55266,5.78936q3.08967,3.88281,3.0916,10.59253a40.48926,40.48926,0,0,1-.52554,6.05213,242.62156,242.62156,0,0,0-3.15842,41.57921,52.8987,52.8987,0,0,1,12.23662-1.18408,107.01676,107.01676,0,0,1,14.8695,1.05238,24.23015,24.23015,0,0,1-.52683-3.88121c0-.74463.13106-1.11855.39448-1.11855s.8108,1.00933,1.64474,3.02607A4.8475,4.8475,0,0,0,587.23526,516.4471Z" transform="translate(0 -400)" style="fill:#fff"/><path d="M664.20919,485.78936a71.5139,71.5139,0,0,1,28.28957,11.71044q7.89476,5.13179,13.61923,8.092a56.2915,56.2915,0,0,0,8.35478,3.75014,170.79067,170.79067,0,0,1,16.44742,5.72383q8.28988,3.35566,8.28924,6.05278,0,2.69841-9.934,4.27633a107.39851,107.39851,0,0,1-16.11848,1.57857,12.691,12.691,0,0,1-7.36793-2.36817q-3.42312-2.36882-12.69792-11.18425a140.98946,140.98946,0,0,0-14.34267-12.36833,27.99745,27.99745,0,0,0-9.67057-4.60528q-4.60656-1.05141-13.94689-.7896a90.54183,90.54183,0,0,0-7.04027,11.38148q-4.277,7.83019-7.43347,14.671a4.69576,4.69576,0,0,1-3.22395,2.7633,32.31257,32.31257,0,0,1-6.90791.52619q-4.73763,0-4.73763-5.526a6.55824,6.55824,0,0,1,.4613-2.63159q.45873-1.05141.92131-1.053a1.23034,1.23034,0,0,1,.789.26342,2.09689,2.09689,0,0,0,1.25026.26341,6.40544,6.40544,0,0,0,2.96054-1.4475,8.60719,8.60719,0,0,0,2.82818-3.02671q7.36859-14.34009,12.43451-22.8285A136.38952,136.38952,0,0,1,658.88048,472.697q6.3798-7.82634,6.38109-9.5395a2.07088,2.07088,0,0,0-1.71028-2.17094q-1.71156-.45969-1.71027-.98684,0-.52427,2.895-1.05238a28.15913,28.15913,0,0,1,4.8687-.52619,12.32846,12.32846,0,0,1,8.35477,3.02607q3.4848,3.028,3.48737,5.92107a4.82671,4.82671,0,0,1-2.23711,4.34186A57.61531,57.61531,0,0,0,664.20919,485.78936Z" transform="translate(0 -400)" style="fill:#fff"/><path d="M825.7884,503.94706q5.92107-.91842,16.57977-3.684a11.43413,11.43413,0,0,1,3.02607-.39448,16.53992,16.53992,0,0,1,10.13187,3.22331q4.3425,3.22556,4.34186,7.17134,0,3.29012-4.86869,3.28948-3.81825,0-14.73715-2.23711a34.99667,34.99667,0,0,0-6.38108-.39448,32.43145,32.43145,0,0,0-8.09265.92067q-.26406,2.76395-.26213,5.6583l.789,20.65758a40.66864,40.66864,0,0,1-2.63159,15.3944q-2.63286,6.44534-3.5529,6.4479-.9213,0-2.566-1.64474a17.048,17.048,0,0,0-5.52531-3.22267,47.96308,47.96308,0,0,1-8.48712-4.67209,42.1118,42.1118,0,0,1-6.25-4.80317,82.40941,82.40941,0,0,1-5.52659-6.9728q-3.88185-5.26189-4.53975-6.51344a6.26005,6.26005,0,0,1-.6579-2.96053,4.80662,4.80662,0,0,1,.6579-2.69712,3.985,3.985,0,0,1,2.82947-1.3158,56.43222,56.43222,0,0,1,7.36793-.32895,57.20952,57.20952,0,0,1,7.82923.39448,7.3867,7.3867,0,0,1,4.53975,2.56606,6.3534,6.3534,0,0,1,1.90816,4.01291q0,1.84457-2.82947,3.61844a9.4862,9.4862,0,0,1-4.67082,1.77645,3.583,3.583,0,0,1-2.2371-.98685,13.58826,13.58826,0,0,0-2.30264-1.57921,18.31081,18.31081,0,0,0-3.94738-1.24962,21.35458,21.35458,0,0,0-3.7495-.65789c-.61549,0-.92131.26277-.92131.789q0,.79025,1.84134,2.895a20.01041,20.01041,0,0,0,4.80316,3.88249,15.77382,15.77382,0,0,0,5.26317,2.169,66.41124,66.41124,0,0,0,9.145.39576,6.28508,6.28508,0,0,0,3.815-.98684q1.31451-.98685,1.71156-5.92108.39319-4.93422.39448-10.1974a78.27646,78.27646,0,0,0-1.3158-12.89452,156.55737,156.55737,0,0,0-26.57929,8.15754q-19.34178,8.28989-22.10507,8.28988-1.57857,0-5.39553-3.224-3.81632-3.22266-3.815-4.14462a1.75154,1.75154,0,0,1,.92131-1.513,3.57022,3.57022,0,0,1,1.97369-.59237,2.04916,2.04916,0,0,1,1.38133.72407,2.25853,2.25853,0,0,0,1.64474.72343q1.7077,0,17.10532-7.10515,15.39441-7.10548,19.868-11.316-9.60631.265-12.36769-5.39488a27.49382,27.49382,0,0,1-2.76394-12.23663q0-3.68235,1.57921-18.68452.12915-1.44654.13107-2.96054a4.08879,4.08879,0,0,0-1.38133-2.89436,3.37938,3.37938,0,0,1-.72343-4.737,4.5175,4.5175,0,0,1,1.97369-1.5792,6.36518,6.36518,0,0,1,2.63159-.59173l2.36817.13107q5.526,0,16.184-8.68373a12.956,12.956,0,0,1,8.35606-2.63158q5.06337,0,10.46082,3.94738,5.39295,3.94738,5.39424,8.42095a3.63233,3.63233,0,0,1-.789,2.63159q-5.92107,5.92107-7.89476,10.78912,3.15714,2.76394,3.15714,5.39488,0,2.63383-4.144,3.35566a50.63243,50.63243,0,0,0-8.22371,2.17093q-4.08037,1.44943-12.89581,5.52595a1.85334,1.85334,0,0,1-1.05238.26342q-2.36881,0-6.31555-3.02607a20.28434,20.28434,0,0,0-1.05238,5.78936q0,4.34154,3.684,4.34186a43.89593,43.89593,0,0,0,10.52635-1.842,83.68808,83.68808,0,0,0,13.15793-4.737,1.874,1.874,0,0,1,1.05238-.26278,10.33766,10.33766,0,0,1,5.39553,2.10476q3.15712,2.10667,3.15713,3.5529,0,6.3162-6.31555,7.50028A25.52241,25.52241,0,0,1,825.7884,503.94706Zm-10.394,2.1054a10.45609,10.45609,0,0,0-1.05238-3.684q-2.89692.39417-6.05342.6579-20.52522,9.73834-26.18352,12.63175Zm-2.36817-38.68421q2.629-3.28724,2.63159-4.99976c0-1.13911-.13235-1.71091-.39577-1.71091a1.488,1.488,0,0,0-.6579.1317q-5.52594,4.08037-8.68372,4.07909-1.71156,0-6.4479-3.02671-1.44943,8.42288-2.63159,12.76346Q800.78833,474.476,813.02623,467.36825Z" transform="translate(0 -400)" style="fill:#fff"/><path d="M948.68405,502.89468q8.419-6.0502,11.05318-9.605,1.57856-2.3688,5.3287-2.36881a12.45461,12.45461,0,0,1,6.77557,1.90816,6.20562,6.20562,0,0,1,3.02735,5.59212,4.38448,4.38448,0,0,1-1.05366,3.02607q-2.63288,2.763-6.11767,14.671-3.48865,11.91057-3.48737,15.59229,0,7.5006,13.68477,7.499,9.86846,0,9.86846-8.15689,0-5.26094-3.94739-14.07861a3.19087,3.19087,0,0,1-.26341-1.18473c0-.3495.15162-.52619.46-.52619.30711,0,.67846.30839,1.1192.92132a183.44324,183.44324,0,0,0,12.89452,17.10531A7.22042,7.22042,0,0,1,1000,538.1577a6.76,6.76,0,0,1-1.44686,4.408q-1.44943,1.77709-7.69816,3.7495a42.3576,42.3576,0,0,1-12.829,1.97369,35.412,35.412,0,0,1-15.32823-3.0916q-6.51471-3.0916-6.51343-11.51319a100.04884,100.04884,0,0,1,1.7758-13.28965q1.77709-10.13058,2.63159-13.618a35.72275,35.72275,0,0,0,.85578-3.94738c0-.30646-.13235-.46066-.39448-.46066q-1.05622,0-8.29053,5.26318a6.69375,6.69375,0,0,1,.6579,2.76329q0,2.763-3.7495,11.84215a72.8253,72.8253,0,0,1-7.1058,13.81583q-3.35373,4.73474-5.45977,4.737-2.10669,0-2.106-2.895,0-10.65773,6.4479-22.10572a7.498,7.498,0,0,0,1.18473-3.355,4.28013,4.28013,0,0,0-.6579-2.30264,11.95616,11.95616,0,0,1-1.71156-6.84239,7.18247,7.18247,0,0,1,.4613-2.63158,8.46581,8.46581,0,0,0,.46-3.02607,18.593,18.593,0,0,0-.26341-3.28949,19.47092,19.47092,0,0,1-7.23687-5.52659q-.65918,5.52692-.92,13.35582-.266,7.82924-.26342,14.671l.13107,11.71044q0,10.92276-2.56606,15.26205-2.56541,4.34444-4.80188,4.34315A2.173,2.173,0,0,1,923.5529,547.04a58.32058,58.32058,0,0,1-3.09289-5.79q-2.30328-4.6721-4.144-9.27609a3.87142,3.87142,0,0,1-3.15841,1.4475q-1.9737,0-4.27633-3.28948-2.30328-3.28819-2.30264-4.2108a.95785.95785,0,0,1,.92131-1.05238,2.66373,2.66373,0,0,0,2.63159-2.03986q.39512-1.77614.26341-10.0657-2.5018,1.44943-6.18448,3.15778,2.10282,18.6855,2.10475,21.44782,0,6.04925-2.49924,6.05278-2.3688,0-4.27633-5.72383-1.91009-5.72447-2.17157-17.9611a61.48675,61.48675,0,0,1-9.474,4.93423q-5.92107,2.56638-7.36793,2.56606-3.028,0-3.02607-9.07885a9.73715,9.73715,0,0,1,.39448-3.02671,2.77271,2.77271,0,0,1,1.05238-1.57857,4.24409,4.24409,0,0,1,2.10476-.39512q5.13275,0,16.97425-5.13147.26213-5.13178,1.44686-17.30256,1.18536-12.16884,4.0142-17.82875a32.08685,32.08685,0,0,1,5.26317-8.09264q2.43242-2.43243,2.43371-4.4074a5.01519,5.01519,0,0,0-.92132-3.15842q-4.3425-5.65507-4.34186-8.68372,0-1.31451.789-1.31579a1.8853,1.8853,0,0,1,1.44815.789,21.04011,21.04011,0,0,0,7.43346,5.46106,12.27567,12.27567,0,0,1,5.85554,4.5391,9.30026,9.30026,0,0,1,1.71027,4.47357q0,2.76393-3.55161,4.60528-8.818,4.73763-10.6587,8.15817a23.91515,23.91515,0,0,0-2.36817,9.07885l3.684-.39448q2.10283-7.89475,5.32871-11.90832,3.22266-4.01194,6.77685-4.01291,3.02607,0,7.36793,4.47357a13.71116,13.71116,0,0,1,4.07973,10.52635,5.62126,5.62126,0,0,0,3.15714.6579q5.52787,0,14.4082-2.96054a69.258,69.258,0,0,0,16.11847-7.69752,11.904,11.904,0,0,1,6.71132-2.10476,7.7168,7.7168,0,0,1,5.78872,2.30264,6.88615,6.88615,0,0,1,2.23711,4.80252,5.09815,5.09815,0,0,1-1.71028,4.01291,5.39633,5.39633,0,0,1-3.61843,1.513,12.78014,12.78014,0,0,1-2.96054-.26278,9.24128,9.24128,0,0,0-2.2371-.26341,24.94337,24.94337,0,0,0-9.99952,2.63159,52.75069,52.75069,0,0,0-11.3166,7.10515,9.02054,9.02054,0,0,1-5.65766,2.36882,15.3083,15.3083,0,0,0-.26341,2.76329,3.26519,3.26519,0,0,0,1.05238,2.36817A30.487,30.487,0,0,0,948.68405,502.89468Zm-37.89461.13171q.39513-4.3425.39449-6.579,0-4.20951-1.51368-4.2108a10.09455,10.09455,0,0,0-4.01292,1.18409q-1.18344,9.73932-1.31579,12.23727Q907.36761,504.34443,910.78944,503.02639Zm13.42136-5.39488q.12914-5.39393.13106-10.65806a32.9655,32.9655,0,0,0-.59236-7.49964q-.59172-2.23583-2.30264-2.23711-3.68524,0-7.36793,6.97345,7.76176,1.18441,6.71,14.86886A19.10451,19.10451,0,0,1,924.2108,497.63151Zm-.13235,8.421-4.47293,2.36881-2.106,16.31572q2.36882,5.52594,4.99976,5.52594,1.4475,0,1.44814-2.10475Q923.94738,516.18593,924.07845,506.05246Zm25.26349-55.92123a118.37526,118.37526,0,0,1,12.369,1.053q8.68308,1.0543,9.7361,3.61843a13.59028,13.59028,0,0,1,1.05238,5.197,6.30014,6.30014,0,0,1-.8545,3.75014,4.52665,4.52665,0,0,1-3.224,1.38133,27.65446,27.65446,0,0,0-12.5,4.86869,35.08434,35.08434,0,0,1-8.61819,4.27633,30.90992,30.90992,0,0,1-5.32871,1.513q-.79025,0-.79025-.59172,0-.59268.92132-1.11855a66.26028,66.26028,0,0,0,9.605-6.64515q3.94738-3.35469,3.94739-4.86805a2.29041,2.29041,0,0,0-.789-2.03986q-1.97368-1.05142-4.67081-5.06529-2.6984-4.01292-2.6984-4.67146Q947.49932,450.13284,949.34194,450.13123Z" transform="translate(0 -400)" style="fill:#fff"/></svg>