<?xml version="1.0" encoding="utf-8"?>
<!-- Generator: Adobe Illustrator 25.4.1, SVG Export Plug-In . SVG Version: 6.00 Build 0)  -->
<svg version="1.1" id="图层_1" xmlns="http://www.w3.org/2000/svg" xmlns:xlink="http://www.w3.org/1999/xlink" x="0px" y="0px"
	 viewBox="0 0 320 100" style="enable-background:new 0 0 320 100;" xml:space="preserve">
<style type="text/css">
	.st0{enable-background:new    ;}
	.st1{fill:#DA4447;}
</style>
<g class="st0">
	<path class="st1" d="M125.88,58.8l-2.16-0.9c0-0.04,0.21-0.64,0.63-1.8c0.42-1.16,0.88-2.76,1.38-4.78c0.5-2.02,0.96-4.4,1.38-7.15
		c0.42-2.74,0.63-5.68,0.63-8.8V14.52h44.1v-1.2h4.74v8.28c0,1.52-0.53,2.8-1.59,3.84c-1.06,1.04-2.33,1.56-3.81,1.56h-38.7v8.4
		c0,3.36-0.22,6.5-0.66,9.42c-0.44,2.92-0.93,5.46-1.47,7.62c-0.54,2.16-1.04,3.88-1.5,5.16c-0.46,1.28-0.71,1.98-0.75,2.1
		L125.88,58.8z M132.48,19.26v3h38.7c0.44,0,0.66-0.22,0.66-0.66v-2.34H132.48z M133.44,48.06c1-0.64,1.91-1.35,2.73-2.13
		c0.82-0.78,1.54-1.53,2.16-2.25c0.62-0.72,1.13-1.35,1.53-1.89c0.4-0.54,0.66-0.91,0.78-1.11l-6,1.08l-0.84-4.62l16.44-2.94
		l0.78,4.62l-10.14,1.86l3.84,2.3c0,0.04-0.07,0.16-0.21,0.35c-0.14,0.2-0.31,0.45-0.51,0.77h8.7v-2.76h4.74v2.76h14.94v4.74h-14.94
		v3.72h19.14v4.74h-19.14v2.46h-4.74V57.3h-19.08v-4.74h19.08v-3.72h-12.78c-1.2,1.2-2.52,2.26-3.96,3.18L133.44,48.06z
		 M148.2,29.64l-0.66,4.68l-12.42-1.86l0.72-4.68L148.2,29.64z M157.44,39.96h-4.74V28.08h4.74V39.96z M159.84,34.2l16.44,2.94
		l-0.84,4.62L159,38.82L159.84,34.2z M174.9,32.46l-12.36,1.86l-0.72-4.68l12.36-1.86L174.9,32.46z"/>
	<path class="st1" d="M207.12,32.52c-0.04,0.48-0.12,1.24-0.24,2.28c-0.12,1.04-0.3,2.29-0.54,3.75c-0.24,1.46-0.55,3.07-0.93,4.83
		c-0.38,1.76-0.85,3.57-1.41,5.43c-0.56,1.86-1.2,3.72-1.92,5.58c-0.72,1.86-1.56,3.63-2.52,5.31l-4.08-2.34
		c1.24-2.16,2.28-4.52,3.12-7.08s1.52-5.01,2.04-7.35s0.92-4.45,1.2-6.33c0.28-1.88,0.46-3.24,0.54-4.08h-6v-4.74h13.2v-7.74H197.1
		V15.3h18.84c1.24,0,2.38-0.12,3.42-0.36c1.04-0.24,1.93-0.51,2.67-0.81s1.55-0.71,2.43-1.23l2.7,3.84c-0.04,0.04-0.34,0.24-0.9,0.6
		c-0.56,0.36-1.34,0.74-2.34,1.14c-1,0.4-2.18,0.76-3.54,1.08c-1.36,0.32-2.84,0.48-4.44,0.48h-1.62v7.74h13.2v4.74h-13.2v27.36
		h-4.74V32.52H207.12z M216.78,35.7l4.56-1.14l5.7,23.52l-4.56,1.14L216.78,35.7z M247.5,54.42c0,1.48-0.52,2.75-1.57,3.81
		c-1.04,1.06-2.33,1.59-3.85,1.59H231.6v-4.74h10.44c0.48,0,0.72-0.22,0.72-0.66V13.26h4.74L247.5,54.42L247.5,54.42z M236.58,51.18
		h-4.74v-32.7h4.74V51.18z"/>
	<path class="st1" d="M284.58,18.54l-6.09,4.2l2.01,3.9v27.42c0,1.52-0.52,2.8-1.56,3.84c-1.04,1.04-2.32,1.56-3.84,1.56h-6.06
		v-4.74h6.01c0.48,0,0.71-0.24,0.71-0.72l0.06-9.42l-7.32,4.92l-2.64-3.9l9.9-6.72v-11.1l-1.26-2.34l-6,4.14l-2.7-3.84l6.54-4.5
		l-3.12-6.06l4.2-2.16l2.83,5.52l5.63-3.9L284.58,18.54z M296.52,13.62v4.98h4.5v4.74h-4.5v3.84h-4.74v-3.84h-7.02V18.6h7.02v-4.98
		H296.52z M317.7,54.12c0,1.52-0.52,2.8-1.56,3.84c-1.04,1.04-2.3,1.56-3.78,1.56h-25.92V30.48h26.58v-1.02h4.68L317.7,54.12
		L317.7,54.12z M291.18,35.22v6.72h8.88v-6.72H291.18z M291.18,54.78h8.88v-8.1h-8.88V54.78z M319.8,23.34h-6.96v3.84h-4.74v-3.84
		h-4.44V18.6h4.44v-4.98h4.74v4.98h6.96L319.8,23.34L319.8,23.34z M313.02,35.22h-8.22v6.72h8.22L313.02,35.22L313.02,35.22z
		 M312.36,54.78c0.2,0,0.36-0.07,0.48-0.21c0.12-0.14,0.18-0.31,0.18-0.51v-7.38h-8.22v8.1L312.36,54.78L312.36,54.78z"/>
</g>
<g class="st0">
	<path class="st1" d="M137.78,85.67h-2.49l-3.24-7.2l-3.21,7.2h-2.46l-1.98-10.83h-0.6v-2.37h2.58l1.65,9.24l3.15-7.05h1.77
		l3.15,7.05l1.68-9.24h2.55v2.37h-0.6L137.78,85.67z"/>
	<path class="st1" d="M155.54,85.67h-2.49l-3.24-7.2l-3.21,7.2h-2.46l-1.98-10.83h-0.6v-2.37h2.58l1.65,9.24l3.15-7.05h1.77
		l3.15,7.05l1.68-9.24h2.55v2.37h-0.6L155.54,85.67z"/>
	<path class="st1" d="M173.3,85.67h-2.49l-3.24-7.2l-3.21,7.2h-2.46l-1.98-10.83h-0.6v-2.37h2.58l1.65,9.24l3.15-7.05h1.77
		l3.15,7.05l1.68-9.24h2.55v2.37h-0.6L173.3,85.67z"/>
	<path class="st1" d="M179.57,84.56v-2.37h2.22v2.37L179.57,84.56L179.57,84.56z"/>
	<path class="st1" d="M187.79,85.85l-1.71-1.62l5.13-5.43l-3.72-3.96h-0.6v-2.37h1.62l4.35,4.59l4.35-4.59h1.62v2.37h-0.6
		l-3.75,3.96l5.16,5.43l-1.71,1.62l-5.07-5.34L187.79,85.85z"/>
	<path class="st1" d="M203.84,71.3h-2.46v-2.67h2.46V71.3z M203.84,86.03h-2.46V73.52h2.46V86.03z"/>
	<path class="st1" d="M209.12,86.24c-0.04-0.02-0.22-0.14-0.52-0.35c-0.31-0.21-0.65-0.51-1.01-0.91c-0.36-0.4-0.68-0.89-0.98-1.46
		c-0.29-0.57-0.44-1.22-0.44-1.94V67.88h-0.78v-2.46h3.27v16.17c0,0.38,0.09,0.73,0.27,1.04c0.18,0.31,0.38,0.57,0.59,0.79
		c0.21,0.22,0.49,0.46,0.85,0.72L209.12,86.24z"/>
	<path class="st1" d="M214.55,71.3h-2.46v-2.67h2.46V71.3z M214.55,86.03h-2.46V73.52h2.46V86.03z"/>
	<path class="st1" d="M229.13,72.86c0.7,0,1.35,0.13,1.95,0.39c0.6,0.26,1.11,0.62,1.54,1.08c0.43,0.46,0.77,1,1.02,1.62
		s0.38,1.3,0.38,2.04v7.95h-2.55v-7.95c0-0.74-0.22-1.35-0.66-1.83c-0.44-0.48-1-0.72-1.68-0.72c-0.66,0-1.21,0.24-1.65,0.72
		c-0.44,0.48-0.66,1.09-0.66,1.83v7.95h-2.55v-7.95c0-0.74-0.22-1.35-0.66-1.83c-0.44-0.48-0.99-0.72-1.65-0.72
		c-0.68,0-1.24,0.24-1.66,0.72c-0.43,0.48-0.65,1.09-0.65,1.83v7.95h-2.58V75.53h-0.45v-2.58h3.03v0.48
		c0.7-0.38,1.47-0.57,2.31-0.57c0.72,0,1.38,0.14,1.99,0.42c0.61,0.28,1.15,0.67,1.6,1.17c0.44-0.5,0.96-0.89,1.57-1.17
		S228.41,72.86,229.13,72.86z"/>
	<path class="st1" d="M247.88,86.12h-2.46V85.1c-0.12,0.06-0.23,0.13-0.33,0.21c-0.54,0.32-1.18,0.59-1.92,0.81
		c-0.46,0.16-0.9,0.26-1.3,0.31s-0.79,0.07-1.12,0.07c-0.46,0-0.87-0.04-1.21-0.12c-0.35-0.08-0.65-0.17-0.91-0.27
		c-0.56-0.22-1.04-0.53-1.43-0.93c-0.39-0.4-0.68-0.85-0.85-1.35c-0.1-0.24-0.17-0.57-0.21-0.99s0.04-0.89,0.23-1.39
		c0.19-0.51,0.55-1.04,1.08-1.57c0.53-0.54,1.32-1.05,2.38-1.53c0.56-0.26,1.18-0.49,1.86-0.69s1.32-0.37,1.92-0.51
		c0.6-0.14,1.1-0.25,1.5-0.33c0.1-0.02,0.19-0.03,0.27-0.03c-0.02-0.08-0.04-0.16-0.06-0.24c-0.06-0.38-0.23-0.71-0.51-0.99
		c-0.5-0.46-1.32-0.66-2.46-0.6c-0.62,0.04-1.2,0.17-1.74,0.38c-0.54,0.21-1.01,0.43-1.41,0.68c-0.4,0.24-0.72,0.46-0.96,0.66
		l-0.36,0.3l-1.71-1.77c0.02-0.02,0.18-0.17,0.49-0.44c0.31-0.27,0.73-0.56,1.27-0.89c0.54-0.32,1.18-0.62,1.9-0.9
		c0.73-0.28,1.52-0.44,2.38-0.48c1.86-0.1,3.28,0.33,4.26,1.29c0.36,0.34,0.63,0.7,0.82,1.08c0.19,0.38,0.33,0.75,0.42,1.11
		c0.09,0.36,0.14,0.68,0.15,0.97s0.01,0.51,0.01,0.68L247.88,86.12L247.88,86.12z M244.19,79.49c-0.54,0.12-1.12,0.27-1.73,0.45
		c-0.61,0.18-1.15,0.38-1.63,0.6c-0.2,0.1-0.45,0.23-0.75,0.39c-0.3,0.16-0.57,0.35-0.82,0.57c-0.25,0.22-0.45,0.46-0.59,0.72
		c-0.14,0.26-0.16,0.53-0.06,0.81c0.04,0.12,0.14,0.26,0.3,0.43s0.4,0.32,0.71,0.44c0.31,0.12,0.7,0.18,1.17,0.19
		s1.04-0.08,1.7-0.29c0.52-0.16,0.98-0.35,1.37-0.57c0.39-0.22,0.71-0.44,0.94-0.66c0.24-0.2,0.45-0.41,0.63-0.63v-2.7
		C245.06,79.31,244.65,79.39,244.19,79.49z"/>
	<path class="st1" d="M256.07,72.47c0.9,0,1.74,0.19,2.52,0.56c0.78,0.37,1.47,0.87,2.06,1.5c0.59,0.63,1.05,1.36,1.39,2.21
		c0.34,0.84,0.51,1.74,0.51,2.7s-0.17,1.86-0.51,2.71c-0.34,0.85-0.81,1.59-1.39,2.22c-0.59,0.63-1.28,1.13-2.06,1.5
		c-0.78,0.37-1.62,0.56-2.52,0.56s-1.74-0.19-2.52-0.56c-0.78-0.37-1.46-0.87-2.05-1.5s-1.05-1.37-1.4-2.22
		c-0.34-0.85-0.51-1.75-0.51-2.71s0.17-1.86,0.51-2.7c0.34-0.84,0.8-1.57,1.4-2.21c0.59-0.63,1.27-1.13,2.05-1.5
		C254.33,72.65,255.17,72.47,256.07,72.47z M256.07,83.9c0.54,0,1.05-0.11,1.53-0.35c0.48-0.23,0.9-0.55,1.26-0.96
		c0.36-0.41,0.65-0.89,0.85-1.43c0.21-0.54,0.32-1.12,0.32-1.74c0-0.6-0.1-1.17-0.32-1.71c-0.21-0.54-0.49-1.01-0.85-1.43
		c-0.36-0.41-0.78-0.73-1.26-0.96c-0.48-0.23-0.99-0.35-1.53-0.35c-0.54,0-1.05,0.11-1.53,0.35c-0.48,0.23-0.9,0.55-1.26,0.96
		c-0.36,0.41-0.65,0.89-0.85,1.43s-0.31,1.11-0.31,1.71c0,0.62,0.1,1.2,0.31,1.74s0.49,1.02,0.85,1.43
		c0.36,0.41,0.78,0.73,1.26,0.96C255.02,83.78,255.53,83.9,256.07,83.9z"/>
	<path class="st1" d="M266.39,84.56v-2.37h2.22v2.37L266.39,84.56L266.39,84.56z"/>
	<path class="st1" d="M279.35,86.36c-0.84,0-1.64-0.18-2.39-0.54c-0.75-0.36-1.4-0.85-1.96-1.47c-0.56-0.62-1.01-1.35-1.34-2.18
		c-0.33-0.83-0.49-1.71-0.49-2.65c0-0.94,0.17-1.82,0.49-2.65c0.33-0.83,0.77-1.55,1.34-2.16c0.56-0.61,1.21-1.1,1.96-1.46
		s1.55-0.54,2.39-0.54c0.98,0,1.9,0.24,2.76,0.71c0.86,0.47,1.59,1.15,2.19,2.03l-1.95,1.32c-0.78-1.12-1.78-1.68-3-1.68
		c-0.52,0-1.02,0.11-1.48,0.35c-0.47,0.23-0.88,0.54-1.22,0.94c-0.34,0.4-0.61,0.87-0.81,1.41c-0.2,0.54-0.3,1.12-0.3,1.74
		c0,0.62,0.1,1.2,0.3,1.74c0.2,0.54,0.47,1.02,0.81,1.43c0.34,0.41,0.74,0.73,1.22,0.96c0.47,0.23,0.96,0.35,1.48,0.35
		c1.22,0,2.22-0.56,3-1.68l1.95,1.32c-0.6,0.88-1.33,1.56-2.19,2.03C281.25,86.12,280.33,86.36,279.35,86.36z"/>
	<path class="st1" d="M292.31,72.47c0.9,0,1.74,0.19,2.52,0.56c0.78,0.37,1.46,0.87,2.06,1.5c0.59,0.63,1.05,1.36,1.4,2.21
		c0.34,0.84,0.51,1.74,0.51,2.7s-0.17,1.86-0.51,2.71c-0.34,0.85-0.81,1.59-1.4,2.22c-0.59,0.63-1.27,1.13-2.06,1.5
		c-0.78,0.37-1.62,0.56-2.52,0.56c-0.9,0-1.74-0.19-2.52-0.56c-0.78-0.37-1.46-0.87-2.05-1.5c-0.59-0.63-1.05-1.37-1.39-2.22
		c-0.34-0.85-0.51-1.75-0.51-2.71s0.17-1.86,0.51-2.7c0.34-0.84,0.8-1.57,1.39-2.21c0.59-0.63,1.28-1.13,2.05-1.5
		C290.57,72.65,291.41,72.47,292.31,72.47z M292.31,83.9c0.54,0,1.05-0.11,1.53-0.35c0.48-0.23,0.9-0.55,1.26-0.96
		c0.36-0.41,0.64-0.89,0.85-1.43c0.21-0.54,0.32-1.12,0.32-1.74c0-0.6-0.11-1.17-0.32-1.71c-0.21-0.54-0.49-1.01-0.85-1.43
		c-0.36-0.41-0.78-0.73-1.26-0.96c-0.48-0.23-0.99-0.35-1.53-0.35c-0.54,0-1.05,0.11-1.53,0.35c-0.48,0.23-0.9,0.55-1.26,0.96
		c-0.36,0.41-0.65,0.89-0.86,1.43c-0.21,0.54-0.31,1.11-0.31,1.71c0,0.62,0.1,1.2,0.31,1.74c0.21,0.54,0.49,1.02,0.86,1.43
		c0.36,0.41,0.78,0.73,1.26,0.96C291.26,83.78,291.77,83.9,292.31,83.9z"/>
	<path class="st1" d="M313.04,72.86c0.7,0,1.35,0.13,1.95,0.39c0.6,0.26,1.11,0.62,1.54,1.08c0.43,0.46,0.77,1,1.02,1.62
		s0.38,1.3,0.38,2.04v7.95h-2.55v-7.95c0-0.74-0.22-1.35-0.66-1.83c-0.44-0.48-1-0.72-1.68-0.72c-0.66,0-1.21,0.24-1.65,0.72
		c-0.44,0.48-0.66,1.09-0.66,1.83v7.95h-2.55v-7.95c0-0.74-0.22-1.35-0.66-1.83c-0.44-0.48-0.99-0.72-1.65-0.72
		c-0.68,0-1.23,0.24-1.67,0.72c-0.43,0.48-0.65,1.09-0.65,1.83v7.95h-2.58V75.53h-0.45v-2.58h3.03v0.48
		c0.7-0.38,1.47-0.57,2.31-0.57c0.72,0,1.39,0.14,1.99,0.42c0.61,0.28,1.15,0.67,1.6,1.17c0.44-0.5,0.97-0.89,1.58-1.17
		C311.65,73,312.32,72.86,313.04,72.86z"/>
</g>
<path class="st1" d="M14.28,51.56v7.93c1.54,18.6,16.6,27.07,32.5,27.07c16.66,0,26.53-7.06,30.27-18h13.81
	c-5.15,18.15-23.65,31-44.58,31c-24.69,0-46-17.88-46-41.26l0,0v-6.74H14.28z"/>
<path class="st1" d="M92.2,0.44v58.74c0,0.76-0.02,1.51-0.07,2.26H79.17c0.02-0.35,0.03-0.71,0.03-1.07l0,0V28.06L65.89,37.5
	l-4.86-2.59c-4.15-2.17-9.03-3.46-14.33-3.46c-4.98-0.02-9.89,1.17-14.32,3.46l0,0l-4.88,2.6L14.2,28.06v15.39h-14v-43l14.37,10.03
	l15.24,10.6c0.38-0.13,0.75-0.27,1.12-0.4l1.12-0.41c4.5-1.62,9.03-3.21,14.14-3.21c5.96,0,11.14,2.16,16.39,4.02l0,0l15.24-10.61
	L92.2,0.44z"/>
<g>
	<path class="st1" d="M53.2,73.45h-3c-1.18,0-2.11-0.34-2.77-1.01c-0.66-0.67-1.08-1.67-1.24-3c-0.14,1.33-0.55,2.33-1.22,3
		s-1.59,1.01-2.76,1.01h-3v-4.01h3.99c0.56,0,1.04-0.2,1.43-0.59c0.39-0.39,0.59-0.86,0.59-1.4c0-0.56-0.2-1.04-0.59-1.43
		c-0.39-0.39-0.87-0.59-1.43-0.59H39.2v-3.98h3c1.17,0,2.09,0.33,2.76,1c0.67,0.66,1.08,1.66,1.22,2.99
		c0.16-1.33,0.58-2.32,1.25-2.99c0.67-0.66,1.59-1,2.76-1h3v3.98h-4.01c-0.54,0-1.01,0.2-1.41,0.59c-0.39,0.39-0.59,0.87-0.59,1.43
		c0,0.54,0.2,1.01,0.59,1.4c0.39,0.39,0.86,0.59,1.41,0.59h4.01V73.45z"/>
</g>
</svg>
